<?xml version="1.0" standalone="no"?>
<!DOCTYPE svg PUBLIC "-//W3C//DTD SVG 1.1//EN" "http://www.w3.org/Graphics/SVG/1.1/DTD/svg11.dtd" >
<svg xmlns="http://www.w3.org/2000/svg">
<metadata>
Generated by SVGconv.
Copyright   : Copyright (C) 1993; Type Market Ltd. Moscow, 119136, Box 20; phone:(095)2879693
Foundry     : ParaType Ltd
</metadata>
<defs>
<font id="HeliosCondWeb-BoldItalic" horiz-adv-x="484" >
<font-face units-per-em="1000" ascent="977" descent="269" />
<missing-glyph horiz-adv-x="500" />
<glyph unicode="&#1;" horiz-adv-x="0" />
<glyph unicode="&#32;" horiz-adv-x="240" />
<glyph unicode="&#33;" horiz-adv-x="191" d="M122 128l-28 -128h-120l28 128zM248 722l-64 -299l-67 -235h-79l26 235l64 299z" />
<glyph unicode="&#34;" horiz-adv-x="362" d="M62 711h116l-56 -260h-116zM180 451l56 260h116l-56 -260z" />
<glyph unicode="&#35;" horiz-adv-x="455" d="M240 487h70l78 214h79l-72 -214h66l-19 -92h-81l-25 -84h64l-20 -92h-75l-75 -219h-83l74 219h-66l-77 -219h-84l76 219h-82l20 92h91l31 84h-85l19 92h95l76 214h83zM280 395h-66l-29 -84l65 0z" />
<glyph unicode="&#36;" horiz-adv-x="500" d="M139 252q-8 -35 -10 -50q-2 -15 -2 -26q0 -23 6.5 -38q6.5 -15 17.5 -24q11 -9 25 -13q14 -4 30 -4q46 0 73 29.5q27 29.5 27 71.5q0 26 -14 45q-14 19 -41 39l-105 80q-73 55 -73 138q0 47 16.5 87q16.5 40 45 70q28.5 30 66.5 49.5q38 19.5 82 25.5l18 87h90l-18 -87q133 -15 133 -146q0 -16 -2.5 -36q-2.5 -20 -10.5 -56l-131 0q5 21 6.5 34.5q1.5 13.5 1.5 24.5q0 38 -17 55q-17 17 -49 17q-37 0 -63 -22.5q-26 -22.5 -26 -63.5q0 -20 8.5 -33q8.5 -13 23.5 -24l120 -93q19 -15 35.5 -29.5q16.5 -14.5 27.5 -30.5q11 -16 17.5 -36q6.5 -20 6.5 -46q0 -54 -17 -100q-17 -46 -48 -80.5q-31 -34.5 -75.5 -55q-44.5 -20.5 -98.5 -23.5l-18 -84h-90l19 88q-67 12 -99.5 53.5q-32.5 41.5 -32.5 107.5q0 17 3 37.5q3 20.5 11 61.5z" />
<glyph unicode="&#37;" horiz-adv-x="799" d="M248 721q36 0 60 -7.5q24 -7.5 38 -20q14 -12.5 19.5 -30q5.5 -17.5 5.5 -38.5q0 -18 -3 -38q-3 -20 -8 -41q-8 -35 -18 -66.5q-10 -31.5 -30 -56q-20 -24.5 -53 -39q-33 -14.5 -85 -14.5q-36 0 -59.5 7.5q-23.5 7.5 -37 20q-13.5 12.5 -19 30q-5.5 17.5 -5.5 38.5q0 19 3 39q3 20 8 41q7 34 17.5 65.5q10.5 31.5 30 56q19.5 24.5 52 39q32.5 14.5 84.5 14.5zt0 0zM235 651q-20 0 -32.5 -7.5q-12.5 -7.5 -21 -21q-8.5 -13.5 -14 -33q-5.5 -19.5 -10.5 -43.5q-4 -18 -6.5 -33.5q-2.5 -15.5 -2.5 -28.5q0 -21 9.5 -32.5q9.5 -11.5 33.5 -11.5q19 0 31.5 7.5q12.5 7.5 20.5 21q8 13.5 13.5 33.5q5.5 20 10.5 44q4 18 6.5 33.5q2.5 15.5 2.5 28.5q0 20 -9 31.5q-9 11.5 -32 11.5zt0 0zM119 0l479 735h67l-478 -735zM620 366q36 0 60 -7.5q24 -7.5 38 -20q14 -12.5 19.5 -30q5.5 -17.5 5.5 -38.5q0 -18 -3 -38q-3 -20 -8 -41q-8 -35 -18 -66.5q-10 -31.5 -30 -56q-20 -24.5 -53 -39q-33 -14.5 -85 -14.5q-36 0 -59.5 7.5q-23.5 7.5 -37 20q-13.5 12.5 -19 30q-5.5 17.5 -5.5 38.5q0 19 3 39q3 20 8 41q7 34 17.5 65.5q10.5 31.5 30 56q19.5 24.5 52 39q32.5 14.5 84.5 14.5zt0 0zM607 296q-20 0 -32.5 -7.5q-12.5 -7.5 -21 -21q-8.5 -13.5 -14 -33q-5.5 -19.5 -10.5 -43.5q-4 -18 -6.5 -33.5q-2.5 -15.5 -2.5 -28.5q0 -21 9.5 -32.5q9.5 -11.5 33.5 -11.5q19 0 31.5 7.5q12.5 7.5 20.5 21q8 13.5 13.5 33.5q5.5 20 10.5 44q4 18 6.5 33.5q2.5 15.5 2.5 28.5q0 20 -9 31.5t-32 11.5z" />
<glyph unicode="&#38;" horiz-adv-x="640" d="M341 500q32 21 54 46q22 25 22 57q0 15 -10.5 27q-10.5 12 -27.5 12q-9 0 -19 -2.5q-10 -2.5 -18.5 -9.5q-8.5 -7 -14 -19.5q-5.5 -12.5 -5.5 -31.5q0 -11 5 -31.5q5 -20.5 14 -47.5zt0 0zM434 255q15 23 28.5 60q13.5 37 21.5 71l107 0q-14 -64 -42 -125q-28 -61 -73 -117l56 -144h-144l-16 48q-45 -36 -87.5 -48.5q-42.5 -12.5 -93.5 -12.5q-35 0 -63 12q-28 12 -48 33.5q-20 21.5 -30.5 51q-10.5 29.5 -10.5 65.5q0 47 14.5 88q14.5 41 40 75.5q25.5 34.5 60.5 63.5q35 29 75 53q-11 27 -19 56q-8 29 -8 60q0 52 19.5 89q19.5 37 49.5 60.5q30 23.5 66 34q36 10.5 68 10.5q25 0 47 -7.5q22 -7.5 39 -22q17 -14.5 27 -36q10 -21.5 10 -48.5q0 -35 -12 -66.5q-12 -31.5 -33 -58.5q-21 -27 -48.5 -49.5q-27.5 -22.5 -57.5 -39.5zM265 332q-11 -3 -27.5 -17q-16.5 -14 -31.5 -34.5q-15 -20.5 -26 -46q-11 -25.5 -11 -52.5q0 -34 19.5 -61q19.5 -27 55.5 -27q26 0 49 11.5q23 11.5 46 28.5z" />
<glyph unicode="&#39;" horiz-adv-x="210" d="M75 711h116l-56 -260l-116 0z" />
<glyph unicode="&#40;" horiz-adv-x="292" d="M364 745q-47 -59 -88 -140q-41 -81 -71.5 -174q-30.5 -93 -48 -193.5q-17.5 -100.5 -17.5 -199.5q0 -57 7 -111.5q7 -54.5 22 -105.5l-85 0q-26 63 -41.5 138q-15.5 75 -15.5 160q0 167 61 318.5q61 151.5 192 307.5l85 0z" />
<glyph unicode="&#41;" horiz-adv-x="293" d="M196 745q32 -70 46.5 -141.5q14.5 -71.5 14.5 -143.5q0 -89 -20.5 -177q-20.5 -88 -56 -170.5q-35.5 -82.5 -82 -156.5q-46.5 -74 -98.5 -135l-85 0q57 80 99.5 169.5q42.5 89.5 70.5 182.5q28 93 42 187q14 94 14 183q0 67 -8 119q-8 52 -22 83z" />
<glyph unicode="&#42;" horiz-adv-x="378" d="M231 603l106 38l12 -77l-113 -30l53 -83l-82 -54l-40 92l-81 -92l-50 47l79 90l-99 30l48 77l91 -38l24 114l76 0z" />
<glyph unicode="&#43;" horiz-adv-x="487" d="M332 482l-39 -182h168l-19 -88h-168l-38 -178h-88l38 178h-168l19 88h168l39 182z" />
<glyph unicode="&#44;" horiz-adv-x="163" d="M50 128h125l-30 -142q-4 -20 -16 -40.5q-12 -20.5 -29.5 -37q-17.5 -16.5 -39 -27.5q-21.5 -11 -43.5 -11h-8l10 47q9 0 20 2.5q11 2.5 22 11q11 8.5 20.5 25q9.5 16.5 15.5 44.5l-74 0z" />
<glyph unicode="&#45;" horiz-adv-x="325" d="M308 300l-18 -88h-255l18 88z" />
<glyph unicode="&#46;" horiz-adv-x="166" d="M36 128h125l-28 -128l-125 0z" />
<glyph unicode="&#47;" horiz-adv-x="343" d="M323 722h93l-397 -804l-91 0z" />
<glyph unicode="&#48;" horiz-adv-x="500" d="M330 722q78 0 120 -37.5q42 -37.5 42 -103.5q0 -25 -5 -47l-77 -359q-9 -43 -30.5 -78.5q-21.5 -35.5 -52.5 -60.5q-31 -25 -70 -39q-39 -14 -84 -14q-36 0 -66.5 10.5q-30.5 10.5 -52.5 30q-22 19.5 -34 47.5q-12 28 -12 62q0 17 5 42l77 359q9 43 32 77.5q23 34.5 55.5 59q32.5 24.5 71.5 38q39 13.5 81 13.5zt0 0zM306 612q-29 0 -54 -17q-25 -17 -32 -49l-81 -383q-1 -5 -1.5 -8.5q-0.5 -3.5 -0.5 -7.5q0 -26 17 -40q17 -14 42 -14q27 0 52.5 21q25.5 21 32.5 53l80 380q2 10 2 16q0 25 -17 37t-40 12z" />
<glyph unicode="&#49;" horiz-adv-x="500" d="M419 709l-150 -709h-128l103 488h-163l21 97h17q40 0 73 10q33 10 59 26.5q26 16.5 45 39q19 22.5 30 48.5z" />
<glyph unicode="&#50;" horiz-adv-x="500" d="M379 0h-393q14 72 38 124q24 52 58 93.5q34 41.5 78 77.5q44 36 98 77q40 30 64 54.5q24 24.5 37.5 46.5q13.5 22 18 42.5q4.5 20.5 4.5 41.5q0 29 -15 42q-15 13 -42 13q-17 0 -32.5 -5.5q-15.5 -5.5 -28.5 -21.5q-13 -16 -24 -45q-11 -29 -18 -76l-128 0q10 72 37.5 121q27.5 49 63.5 79.5q36 30.5 77 44q41 13.5 77 13.5q73 0 119 -38.5q46 -38.5 46 -107.5q0 -33 -10.5 -67.5q-10.5 -34.5 -30 -67q-19.5 -32.5 -46 -63q-26.5 -30.5 -58.5 -55.5q-33 -27 -66.5 -51q-33.5 -24 -62.5 -49.5q-29 -25.5 -51.5 -52.5q-22.5 -27 -32.5 -60l247 0z" />
<glyph unicode="&#51;" horiz-adv-x="500" d="M90 506q8 52 29 92.5q21 40.5 52 68q31 27.5 70.5 41.5q39.5 14 84.5 14q77 0 118 -33.5q41 -33.5 41 -96.5q0 -43 -11.5 -78q-11.5 -35 -30.5 -61.5q-19 -26.5 -45 -44.5q-26 -18 -54 -26q82 -19 82 -115q0 -28 -8 -66q-25 -116 -89 -167q-64 -51 -164 -51q-81 0 -116 39q-35 39 -35 99q0 14 2.5 37q2.5 23 12.5 61l121 0q-7 -26 -9 -42q-2 -16 -2 -26q0 -28 11.5 -44.5q11.5 -16.5 40.5 -16.5q21 0 40.5 9q19.5 9 32.5 34q8 16 14 35q6 19 9.5 37.5q3.5 18.5 5 34q1.5 15.5 1.5 23.5q0 35 -15.5 49q-15.5 14 -49.5 14h-57l21 97h38q37 0 61 16q24 16 38 39q14 23 19 48q5 25 5 43q0 22 -11.5 34q-11.5 12 -39.5 12q-33 0 -57.5 -24q-24.5 -24 -34.5 -85z" />
<glyph unicode="&#52;" horiz-adv-x="500" d="M486 709l-96 -456h64l-24 -110h-64l-30 -143h-128l30 143h-224l27 128l293 438zM324 546l-193 -293l131 0z" />
<glyph unicode="&#53;" horiz-adv-x="500" d="M493 709l-23 -107h-234l-40 -153q29 25 56.5 35.5q27.5 10.5 53.5 10.5q70 0 104 -35q34 -35 34 -100q0 -9 -1 -19q-1 -10 -3 -25.5q-2 -15.5 -7 -38.5q-5 -23 -12 -59q-26 -121 -84.5 -178q-58.5 -57 -161.5 -57q-81 0 -124.5 36q-43.5 36 -43.5 106q0 14 2.5 35q2.5 21 10.5 56l126 0q-5 -21 -6.5 -37.5q-1.5 -16.5 -1.5 -29.5q0 -35 14 -47q14 -12 40 -12q19 0 34 5q15 5 27 18.5q12 13.5 21 36q9 22.5 17 58.5q7 33 11 53.5q4 20.5 6 32q2 11.5 2.5 17q0.5 5.5 0.5 9.5q0 65 -60 65q-23 0 -43 -14q-20 -14 -32 -37l-123 0l95 375z" />
<glyph unicode="&#54;" horiz-adv-x="500" d="M358 554q2 10 2 18q0 43 -54 43q-32 0 -53.5 -21.5q-21.5 -21.5 -32.5 -74.5l-17 -84q23 21 58 35.5q35 14.5 64 14.5q54 0 85.5 -29q31.5 -29 31.5 -85q0 -11 -1 -22q-1 -11 -4 -24l-36 -170q-9 -45 -31 -77.5q-22 -32.5 -53 -53.5q-31 -21 -69 -31q-38 -10 -80 -10q-32 0 -60.5 7.5q-28.5 7.5 -50.5 23q-22 15.5 -34.5 40q-12.5 24.5 -12.5 58.5q0 10 1.5 21q1.5 11 3.5 23l79 368q9 42 29 78q20 36 49.5 63q29.5 27 68 42q38.5 15 85.5 15q77 0 120.5 -34.5q43.5 -34.5 43.5 -95.5q0 -19 -4 -38zM255 375q-26 0 -49 -16.5q-23 -16.5 -31 -54.5l-30 -142q-2 -6 -2.5 -13.5q-0.5 -7.5 -0.5 -13.5q0 -45 48 -45q31 0 54 18q23 18 31 55l30 143q1 3 1.5 9q0.5 6 0.5 9q0 25 -16 38t-36 13z" />
<glyph unicode="&#55;" horiz-adv-x="500" d="M481 709l-21 -102q-40 -55 -81.5 -119.5q-41.5 -64.5 -81 -139.5q-39.5 -75 -75 -162q-35.5 -87 -62.5 -186l-142 0q26 82 61.5 165.5q35.5 83.5 76.5 161.5q41 78 84.5 148q43.5 70 86.5 124l-278 0l23 110z" />
<glyph unicode="&#56;" horiz-adv-x="500" d="M248 325q-35 0 -57.5 -25q-22.5 -25 -32.5 -72q-8 -40 -10.5 -54.5q-2.5 -14.5 -2.5 -23.5q0 -60 53 -60q34 0 57.5 25.5q23.5 25.5 34.5 75.5q4 20 6.5 32.5q2.5 12.5 3.5 21q1 8.5 1.5 13.5q0.5 5 0.5 9q0 58 -54 58zt0 0zM310 615q-30 0 -47.5 -18.5q-17.5 -18.5 -26 -41.5q-8.5 -23 -11 -45q-2.5 -22 -2.5 -29q0 -55 47 -55q28 0 45.5 17q17.5 17 26.5 40.5q9 23.5 12 47q3 23.5 3 36.5q0 26 -11 37q-11 11 -36 11zt0 0zM159 381q-23 14 -39 39q-16 25 -16 70q0 58 19 102q19 44 51 72.5q32 28.5 73 43q41 14.5 86 14.5q68 0 110.5 -30.5q42.5 -30.5 42.5 -96.5q0 -29 -6.5 -59.5q-6.5 -30.5 -20.5 -59q-14 -28.5 -37.5 -53.5q-23.5 -25 -56.5 -42q32 -16 47.5 -42.5q15.5 -26.5 15.5 -67.5q0 -41 -11 -91.5q-11 -50.5 -39 -94q-28 -43.5 -77.5 -73q-49.5 -29.5 -125.5 -29.5q-81 0 -121 33q-40 33 -40 105q0 28 6 64.5q6 36.5 21.5 73q15.5 36.5 44 69t73.5 53.5z" />
<glyph unicode="&#57;" horiz-adv-x="500" d="M333 722q32 0 60.5 -7.5q28.5 -7.5 50 -23.5q21.5 -16 34 -40q12.5 -24 12.5 -58q0 -10 -1.5 -21q-1.5 -11 -3.5 -23l-78 -368q-9 -42 -29 -78q-20 -36 -49.5 -62.5q-29.5 -26.5 -68.5 -42q-39 -15.5 -85 -15.5q-77 0 -121 34.5q-44 34.5 -44 95.5q0 9 1 18.5q1 9.5 3 19.5l128 0q-2 -10 -2 -17q0 -44 54 -44q32 0 53 21q21 21 33 75l18 84q-23 -21 -58.5 -35.5q-35.5 -14.5 -64.5 -14.5q-54 0 -85.5 29q-31.5 29 -31.5 85q0 11 1 22q1 11 4 24l36 170q9 45 31 77.5q22 32.5 53 53.5q31 21 69.5 31q38.5 10 80.5 10zt0 0zM310 615q-31 0 -54 -18q-23 -18 -31 -55l-30 -143q-1 -5 -1.5 -9.5q-0.5 -4.5 -0.5 -7.5q0 -26 15.5 -39q15.5 -13 36.5 -13q26 0 49 16.5q23 16.5 31 54.5l31 142q3 15 3 26q0 46 -49 46z" />
<glyph unicode="&#58;" horiz-adv-x="190" d="M91 539h125l-28 -128h-125zM4 128h125l-28 -128l-125 0z" />
<glyph unicode="&#59;" horiz-adv-x="190" d="M105 539h125l-28 -128h-125zM17 128h125l-30 -142q-4 -20 -16 -40.5q-12 -20.5 -29.5 -37q-17.5 -16.5 -39 -27.5q-21.5 -11 -43.5 -11h-8l10 47q9 0 20 2.5q11 2.5 22 11q11 8.5 20.5 25q9.5 16.5 15.5 44.5l-74 0z" />
<glyph unicode="&#60;" horiz-adv-x="460" d="M35 297l459 222l-24 -109l-322 -160l254 -161l-21 -101l-365 216z" />
<glyph unicode="&#61;" horiz-adv-x="482" d="M485 388l-19 -88h-433l19 88zM448 212l-19 -88h-433l19 88z" />
<glyph unicode="&#62;" horiz-adv-x="460" d="M326 261l-249 157l23 109l356 -221l-19 -93l-451 -225l23 107z" />
<glyph unicode="&#63;" horiz-adv-x="439" d="M104 194q12 54 28 91.5q16 37.5 34.5 63.5q18.5 26 38 43.5q19.5 17.5 37.5 32.5q18 14 36 32q18 18 32.5 38q14.5 20 23.5 41.5q9 21.5 9 42.5q0 23 -13.5 36q-13.5 13 -41.5 13q-26 0 -47 -18q-21 -18 -31 -64l-5 -24h-119l5 24q10 47 31 82.5q21 35.5 50.5 59q29.5 23.5 66.5 35.5q37 12 78 12q33 0 62 -8q29 -8 51 -23.5q22 -15.5 34.5 -38q12.5 -22.5 12.5 -51.5q0 -24 -6 -52.5q-6 -28.5 -20.5 -58.5q-14.5 -30 -39.5 -62q-25 -32 -63 -63q-42 -35 -71.5 -68.5q-29.5 -33.5 -39.5 -78.5l-8 -37zM91 128h125l-28 -128l-125 0z" />
<glyph unicode="&#64;" horiz-adv-x="975" d="M523 461q-30 0 -57 -15.5q-27 -15.5 -47.5 -39.5q-20.5 -24 -32.5 -52.5q-12 -28.5 -12 -53.5q0 -29 16 -46q16 -17 46 -17q28 0 55.5 15q27.5 15 48.5 38q21 23 34 51.5q13 28.5 13 55.5q0 29 -17 46.5q-17 17.5 -47 17.5zt0 0zM664 546h88q-38 -87 -63 -143q-25 -56 -39.5 -90q-14.5 -34 -20.5 -50q-6 -16 -6 -22q0 -13 11 -13q27 0 55.5 19.5q28.5 19.5 51 52.5q22.5 33 37 76q14.5 43 14.5 89q0 46 -16.5 82q-16.5 36 -46.5 60.5q-30 24.5 -72 37q-42 12.5 -92 12.5q-75 0 -140 -31q-65 -31 -113 -82.5q-48 -51.5 -75.5 -119q-27.5 -67.5 -27.5 -139.5q0 -51 17 -92.5q17 -41.5 49 -71q32 -29.5 77 -45q45 -15.5 101 -15.5q63 0 121 22q58 22 106 59l89 0q-69 -78 -157 -119.5q-88 -41.5 -182 -41.5q-71 0 -130 22q-59 22 -101.5 61q-42.5 39 -66 94q-23.5 55 -23.5 121q0 95 40.5 178.5q40.5 83.5 107.5 145.5q67 62 152.5 98q85.5 36 174.5 36q60 0 113.5 -17.5q53.5 -17.5 93.5 -49.5q40 -32 63 -78.5q23 -46.5 23 -103.5q0 -63 -19 -113.5q-19 -50.5 -49.5 -89.5q-30.5 -39 -67.5 -67q-37 -28 -73 -46q-36 -18 -66.5 -26.5q-30.5 -8.5 -47.5 -8.5q-26 0 -36 13q-10 13 -10 40l-2 1q-24 -22 -55.5 -38q-31.5 -16 -60.5 -16q-28 0 -51.5 10.5q-23.5 10.5 -40.5 29q-17 18.5 -26.5 43.5q-9.5 25 -9.5 54q0 50 23 100.5q23 50.5 60.5 91.5q37.5 41 86 66.5q48.5 25.5 100.5 25.5q38 0 65.5 -15q27.5 -15 41.5 -50z" />
<glyph unicode="&#65;" horiz-adv-x="539" d="M284 722h184l6 -722h-148l6 188h-155l-83 -188h-147zM338 295l16 336h-5l-132 -336z" />
<glyph unicode="&#66;" horiz-adv-x="527" d="M220 429h72q52 0 81 37q29 37 29 97q0 28 -15.5 42q-15.5 14 -51.5 14h-74zM151 103h88q42 0 73.5 39.5q31.5 39.5 31.5 117.5q0 32 -14 49q-14 17 -43 17h-88zM146 722h253q39 0 67 -10q28 -10 45 -27.5q17 -17.5 25 -40.5q8 -23 8 -50q0 -30 -10 -64q-10 -34 -27.5 -63.5q-17.5 -29.5 -42.5 -51q-25 -21.5 -55 -27.5q38 -17 57.5 -44.5q19.5 -27.5 19.5 -72.5q0 -56 -17 -105q-17 -49 -47 -86q-30 -37 -69.5 -58.5q-39.5 -21.5 -84.5 -21.5l-276 0z" />
<glyph unicode="&#67;" horiz-adv-x="531" d="M396 487q7 30 9.5 47q2.5 17 2.5 29q0 34 -15.5 48q-15.5 14 -47.5 14q-44 0 -69 -26.5q-25 -26.5 -40 -95.5q-22 -102 -35.5 -165q-13.5 -63 -21 -100.5q-7.5 -37.5 -10 -55q-2.5 -17.5 -2.5 -26.5q0 -35 15.5 -49q15.5 -14 47.5 -14q21 0 38.5 7q17.5 7 32.5 25q15 18 26.5 50q11.5 32 19.5 82l137 0q-11 -62 -31 -112.5q-20 -50.5 -53 -86.5q-33 -36 -80.5 -55.5q-47.5 -19.5 -111.5 -19.5q-52 0 -87 12q-35 12 -56 33q-21 21 -30 49.5q-9 28.5 -9 62.5q0 13 1.5 28q1.5 15 8 49.5q6.5 34.5 20 97q13.5 62.5 36.5 172.5q27 128 96.5 188q69.5 60 181.5 60q88 0 133 -40q45 -40 45 -112q0 -14 -2.5 -33.5q-2.5 -19.5 -12.5 -62.5z" />
<glyph unicode="&#68;" horiz-adv-x="560" d="M146 722h242q36 0 67 -8q31 -8 54.5 -29q23.5 -21 37 -56.5q13.5 -35.5 13.5 -90.5q0 -11 -2 -40q-2 -29 -8 -68.5q-6 -39.5 -17 -87q-11 -47.5 -27.5 -95q-16.5 -47.5 -40 -92.5q-23.5 -45 -56 -79.5q-32.5 -34.5 -74 -55q-41.5 -20.5 -93.5 -20.5h-250zM152 107h86q28 0 49.5 14.5q21.5 14.5 38 39q16.5 24.5 29 56.5q12.5 32 21.5 66q9 35 17 69.5q8 34.5 13 66q5 31.5 8 58q3 26.5 3 44.5q0 94 -67 94l-90 0z" />
<glyph unicode="&#69;" horiz-adv-x="472" d="M532 722l-24 -110h-249l-35 -168h227l-24 -110h-227l-47 -224h249l-24 -110h-386l154 722z" />
<glyph unicode="&#70;" horiz-adv-x="450" d="M525 722l-24 -110h-242l-35 -168h229l-24 -110h-229l-71 -334h-137l154 722z" />
<glyph unicode="&#71;" horiz-adv-x="556" d="M533 387l-82 -387h-107l17 81q-32 -47 -71.5 -72.5q-39.5 -25.5 -103.5 -25.5q-34 0 -63.5 10q-29.5 10 -51 31.5q-21.5 21.5 -33.5 54.5q-12 33 -12 78q0 10 1.5 23.5q1.5 13.5 7.5 46.5q6 33 18 92q12 59 34 160q56 256 292 256q52 0 87.5 -13q35.5 -13 57.5 -35.5q22 -22.5 32 -52q10 -29.5 10 -63.5q0 -15 -2 -33q-2 -18 -10 -50l-137 0q4 19 6 34.5q2 15.5 2 29.5q0 39 -17 56q-17 17 -52 17q-53 0 -82.5 -31.5q-29.5 -31.5 -45.5 -105.5q-21 -99 -32.5 -157q-11.5 -58 -17.5 -90q-6 -32 -7.5 -45q-1.5 -13 -1.5 -22q0 -42 17 -61.5q17 -19.5 55 -19.5q22 0 42.5 8.5q20.5 8.5 37.5 30q17 21.5 30.5 57.5q13.5 36 21.5 91l-91 0l23 107z" />
<glyph unicode="&#72;" horiz-adv-x="555" d="M224 444h181l59 278h137l-154 -722h-137l71 334h-181l-71 -334h-137l154 722l137 0z" />
<glyph unicode="&#73;" horiz-adv-x="237" d="M129 0h-137l154 722l137 0z" />
<glyph unicode="&#74;" horiz-adv-x="451" d="M499 722l-121 -567q-17 -80 -76 -126q-59 -46 -150 -46q-75 0 -113.5 28q-38.5 28 -38.5 93q0 7 0.5 15.5q0.5 8.5 3 22.5q2.5 14 6.5 34.5q4 20.5 11 51.5l134 0q-7 -31 -10.5 -48.5q-3.5 -17.5 -5.5 -27.5q-2 -10 -2.5 -13.5q-0.5 -3.5 -0.5 -6.5q0 -23 11.5 -31q11.5 -8 27.5 -8q23 0 41.5 16q18.5 16 26.5 54l119 559z" />
<glyph unicode="&#75;" horiz-adv-x="536" d="M216 409l233 313h155l-250 -313l102 -409h-153l-59 288l-69 -71l-46 -217h-137l154 722l137 0z" />
<glyph unicode="&#76;" horiz-adv-x="459" d="M153 110h249l-24 -110h-386l154 722l137 0z" />
<glyph unicode="&#77;" horiz-adv-x="730" d="M363 722v-465l194 465h219l-154 -722h-128l139 654h-1l-276 -654h-97v653h-1l-138 -653h-128l154 722z" />
<glyph unicode="&#78;" horiz-adv-x="560" d="M294 722l88 -525h1q0 27 4 61q4 34 10 70q6 36 13 72q7 36 13 66l55 256h128l-154 -722h-148l-88 524h-1q0 -26 -4 -61q-4 -35 -10 -72q-6 -37 -13 -72.5q-7 -35.5 -13 -62.5l-55 -256h-128l154 722z" />
<glyph unicode="&#79;" horiz-adv-x="557" d="M379 735q43 0 78 -8.5q35 -8.5 59.5 -27.5q24.5 -19 38 -49.5q13.5 -30.5 13.5 -75.5q0 -9 -0.5 -18q-0.5 -9 -2.5 -23q-2 -14 -6 -36q-4 -22 -11.5 -58q-7.5 -36 -18.5 -88q-11 -52 -26 -125q-15 -69 -41.5 -115.5q-26.5 -46.5 -63 -75q-36.5 -28.5 -82 -40.5q-45.5 -12 -97.5 -12q-43 0 -78.5 8.5q-35.5 8.5 -61 27.5q-25.5 19 -39.5 50q-14 31 -14 76q0 9 0.5 17.5q0.5 8.5 2.5 22.5q2 14 6.5 35.5q4.5 21.5 11.5 56.5q7 35 18 86.5q11 51.5 26 124.5q14 68 41.5 115q27.5 47 65 76.5q37.5 29.5 84 42.5q46.5 13 97.5 13zt0 0zM356 625q-49 0 -79 -31.5q-30 -31.5 -42 -89.5q-17 -78 -28 -131.5q-11 -53.5 -19 -89.5q-8 -36 -12 -57q-4 -21 -6 -32.5q-2 -11.5 -2.5 -17q-0.5 -5.5 -0.5 -10.5q0 -73 75 -73q45 0 75 29.5q30 29.5 42 86.5q25 116 38.5 180.5q13.5 64.5 20 96.5q6.5 32 7.5 42.5q1 10.5 1 18.5q0 37 -17.5 57.5t-52.5 20.5z" />
<glyph unicode="&#80;" horiz-adv-x="544" d="M129 0h-137l154 722h259q37 0 65 -11.5q28 -11.5 47 -32.5q19 -21 29 -49.5q10 -28.5 10 -62.5q0 -53 -19.5 -102q-19.5 -49 -52.5 -87q-33 -38 -77.5 -60.5q-44.5 -22.5 -94.5 -22.5h-120zM215 401h69q58 0 93.5 38q35.5 38 35.5 104q0 35 -21 53.5q-21 18.5 -63 18.5l-69 0z" />
<glyph unicode="&#81;" horiz-adv-x="562" d="M415 -58l-61 70q-30 -13 -64 -21q-34 -8 -71 -8q-43 0 -78.5 8.5q-35.5 8.5 -61 28q-25.5 19.5 -39.5 51q-14 31.5 -14 76.5q0 9 0.5 17.5q0.5 8.5 2.5 22.5q2 14 6 35.5q4 21.5 11.5 56.5q7.5 35 18 86q10.5 51 26.5 123q15 68 42 115q27 47 64.5 76.5q37.5 29.5 83.5 42.5q46 13 97 13q43 0 78 -8.5q35 -8.5 60 -28q25 -19.5 38.5 -50.5q13.5 -31 13.5 -76q0 -13 -1.5 -27q-1.5 -14 -7.5 -46.5q-6 -32.5 -18.5 -92q-12.5 -59.5 -34.5 -163.5q-11 -52 -28.5 -97q-17.5 -45 -40.5 -73l56 -68zM332 197l17 -21q2 5 7.5 28q5.5 23 10.5 46q21 100 33 156q12 56 18 84.5q6 28.5 7 37.5q1 9 1 17q0 38 -18 59q-18 21 -53 21q-49 0 -78.5 -31q-29.5 -31 -41.5 -88q-17 -78 -28.5 -132.5q-11.5 -54.5 -19 -91q-7.5 -36.5 -12 -57.5q-4.5 -21 -6.5 -33q-2 -12 -2.5 -17.5q-0.5 -5.5 -0.5 -9.5q0 -72 76 -72q8 0 18.5 2q10.5 2 16.5 6l-27 30z" />
<glyph unicode="&#82;" horiz-adv-x="561" d="M129 0h-137l154 722h285q71 0 108.5 -40q37.5 -40 37.5 -102q0 -46 -13.5 -85q-13.5 -39 -35.5 -67.5q-22 -28.5 -48.5 -45q-26.5 -16.5 -52.5 -18.5l0 -1q22 -4 36.5 -13q14.5 -9 23 -22q8.5 -13 12 -27.5q3.5 -14.5 3.5 -28.5q0 -12 -6 -42q-6 -30 -12.5 -64q-6.5 -34 -12.5 -65q-6 -31 -6 -46q0 -15 5 -24.5q5 -9.5 16 -9.5l-5 -21h-137q-9 9 -12.5 22.5q-3.5 13.5 -3.5 30.5q0 20 5 46.5q5 26.5 10.5 53q5.5 26.5 10.5 50q5 23.5 5 36.5q0 29 -14.5 48q-14.5 19 -50.5 19h-100zM216 409h92q20 0 42 7.5q22 7.5 40 24q18 16.5 30 43.5q12 27 12 67q0 38 -22.5 51q-22.5 13 -60.5 13l-89 0z" />
<glyph unicode="&#83;" horiz-adv-x="523" d="M388 494q4 21 5.5 35q1.5 14 1.5 25q0 38 -16.5 54.5q-16.5 16.5 -48.5 16.5q-38 0 -63.5 -22.5q-25.5 -22.5 -25.5 -64.5q0 -20 8.5 -32.5q8.5 -12.5 22.5 -23.5l120 -93q40 -31 63.5 -62.5q23.5 -31.5 23.5 -82.5q0 -59 -20 -107.5q-20 -48.5 -56 -82.5q-36 -34 -86 -52.5q-50 -18.5 -110 -18.5q-96 0 -142.5 43.5q-46.5 43.5 -46.5 122.5q0 17 3 38q3 21 11 61l131 0q-8 -35 -10 -50q-2 -15 -2 -26q0 -23 6.5 -38.5q6.5 -15.5 17 -24.5q10.5 -9 25 -12.5q14.5 -3.5 30.5 -3.5q23 0 41.5 8.5q18.5 8.5 32 23q13.5 14.5 21 33.5q7.5 19 7.5 40q0 26 -14 45q-14 19 -41 39l-105 80q-74 56 -74 140q0 55 21 98q21 43 56.5 73q35.5 30 82 46q46.5 16 98.5 16q86 0 130.5 -38q44.5 -38 44.5 -113q0 -16 -2.5 -35.5q-2.5 -19.5 -9.5 -54.5z" />
<glyph unicode="&#84;" horiz-adv-x="513" d="M267 0h-137l130 612h-170l24 110h477l-24 -110l-170 0z" />
<glyph unicode="&#85;" horiz-adv-x="557" d="M284 722l-108 -508q-6 -27 -6 -48q0 -69 73 -69q51 0 77 28q26 28 39 89l108 508h137l-112 -528q-21 -98 -86.5 -152.5q-65.5 -54.5 -185.5 -54.5q-100 0 -146 37.5q-46 37.5 -46 108.5q0 30 7 61l112 528z" />
<glyph unicode="&#86;" horiz-adv-x="521" d="M253 722l-23 -601h2l226 601h141l-295 -722h-197l0 722z" />
<glyph unicode="&#87;" horiz-adv-x="800" d="M254 722l-46 -603h1l218 603h146l-38 -603h1l210 603h138l-270 -722h-193l33 503h-1l-182 -503h-193l38 722z" />
<glyph unicode="&#88;" horiz-adv-x="549" d="M277 722l43 -235l148 235h154l-253 -351l105 -371h-153l-48 266l-166 -266h-150l253 371l-92 351z" />
<glyph unicode="&#89;" horiz-adv-x="543" d="M269 722l37 -278l168 278h155l-283 -412l-66 -310h-137l66 310l-102 412z" />
<glyph unicode="&#90;" horiz-adv-x="489" d="M536 722l-23 -107l-371 -508h270l-23 -107h-416l22 103l374 512h-252l23 107z" />
<glyph unicode="&#91;" horiz-adv-x="271" d="M331 722l-16 -75h-85l-140 -660h92l-16 -75h-206l172 810z" />
<glyph unicode="&#92;" horiz-adv-x="343" d="M191 722l55 -804h-91l-57 804z" />
<glyph unicode="&#93;" horiz-adv-x="290" d="M323 722l-172 -810h-206l16 75h92l140 660h-85l16 75z" />
<glyph unicode="&#94;" horiz-adv-x="514" d="M363 724l96 -365l-106 -47l-74 269l-194 -269l-85 47l258 365z" />
<glyph unicode="&#95;" horiz-adv-x="515" d="M506 -49l-12 -60h-487l12 60z" />
<glyph unicode="&#96;" horiz-adv-x="318" d="M273 586h-98l-116 136l158 0z" />
<glyph unicode="&#97;" horiz-adv-x="477" d="M208 230q-32 -18 -47 -47q-15 -29 -15 -57q0 -21 9.5 -35q9.5 -14 32.5 -14q29 0 52.5 17.5q23.5 17.5 31.5 54.5l28 133zM78 378q6 43 26 77q20 34 50 57.5q30 23.5 67.5 35.5q37.5 12 77.5 12q35 0 65 -6q30 -6 51.5 -19q21.5 -13 34 -33.5q12.5 -20.5 12.5 -48.5q0 -16 -4 -33l-72 -340q-3 -16 -5 -28q-2 -12 -2 -23q0 -17 6 -29l-129 0q-2 3 -2.5 9.5q-0.5 6.5 -0.5 9.5q0 7 1 16.5q1 9.5 3 16.5q-25 -32 -54 -50q-29 -18 -79 -18q-51 0 -82 25.5q-31 25.5 -31 79.5q0 88 48 141.5q48 53.5 134 85.5q71 26 103.5 50q32.5 24 32.5 59q0 15 -10.5 24.5q-10.5 9.5 -39.5 9.5q-26 0 -50 -17.5q-24 -17.5 -31 -63.5z" />
<glyph unicode="&#98;" horiz-adv-x="466" d="M275 459q-23 0 -45 -16q-22 -16 -30 -50l-52 -246q-2 -10 -2 -17q0 -25 14.5 -37q14.5 -12 34.5 -12q24 0 45 16q21 16 28 48l53 250q2 10 2 19q0 23 -14 34q-14 11 -34 11zt0 0zM224 506q17 20 47.5 37q30.5 17 68.5 17q24 0 45 -6q21 -6 36.5 -19q15.5 -13 25 -33.5q9.5 -20.5 9.5 -48.5q0 -21 -6 -46l-57 -269q-8 -39 -26 -68q-18 -29 -41.5 -48q-23.5 -19 -51.5 -28.5q-28 -9.5 -56 -9.5q-33 0 -59 20.5q-26 20.5 -31 51.5l-13 -56h-123l154 722l123 0z" />
<glyph unicode="&#99;" horiz-adv-x="437" d="M289 348q4 22 7 35.5q3 13.5 4.5 22q1.5 8.5 2 12.5q0.5 4 0.5 7q0 17 -10.5 25.5q-10.5 8.5 -27.5 8.5q-23 0 -40.5 -13.5q-17.5 -13.5 -23.5 -42.5l-56 -262q-2 -8 -2 -17q0 -20 11.5 -29.5q11.5 -9.5 30.5 -9.5q20 0 37 12q17 12 22 37l16 77h123l-18 -83q-8 -36 -29 -63q-21 -27 -49 -45q-28 -18 -60.5 -27q-32.5 -9 -62.5 -9q-70 0 -110.5 32.5q-40.5 32.5 -40.5 87.5q0 18 4 34l56 268q7 34 26.5 62.5q19.5 28.5 47.5 49q28 20.5 63.5 31.5q35.5 11 75.5 11q27 0 53 -7q26 -7 46 -21.5q20 -14.5 32.5 -36q12.5 -21.5 12.5 -50.5q0 -14 -3 -29l-15 -68z" />
<glyph unicode="&#100;" horiz-adv-x="466" d="M277 459q-23 0 -45 -16q-22 -16 -30 -50l-52 -246q-2 -10 -2 -17q0 -25 14.5 -37q14.5 -12 34.5 -12q24 0 45 16q21 16 28 48l53 250q2 10 2 19q0 23 -14 34q-14 11 -34 11zt0 0zM391 722h123l-153 -722h-123l12 56q-23 -32 -55 -52q-32 -20 -65 -20q-48 0 -81.5 27.5q-33.5 27.5 -33.5 84.5q0 22 4 42l57 269q9 41 27 70q18 29 42 47.5q24 18.5 51.5 27q27.5 8.5 55.5 8.5q38 0 61 -17q23 -17 33 -37z" />
<glyph unicode="&#101;" horiz-adv-x="466" d="M165 260l-25 -119q-2 -10 -2 -15q0 -45 54 -45q30 0 51 15.5q21 15.5 27 44.5l7 31h123q-9 -52 -30.5 -87.5q-21.5 -35.5 -51.5 -58q-30 -22.5 -67.5 -32.5q-37.5 -10 -78.5 -10q-70 0 -113.5 29q-43.5 29 -43.5 94q0 23 6 50l48 230q10 46 31 79q21 33 50.5 54q29.5 21 66 30.5q36.5 9.5 77.5 9.5q70 0 113.5 -29q43.5 -29 43.5 -94q0 -23 -6 -50l-27 -127zM315 350l11 53q2 10 2 15q0 22 -14 33.5q-14 11.5 -40 11.5q-30 0 -51 -15q-21 -15 -27 -45l-11 -53z" />
<glyph unicode="&#102;" horiz-adv-x="265" d="M114 546l12 55q5 22 13.5 44q8.5 22 26.5 39q18 17 47 27.5q29 10.5 75 10.5h38l-21 -97q-30 0 -41.5 -6.5q-11.5 -6.5 -16.5 -28.5l-10 -44h56l-19 -90h-56l-97 -456h-123l97 456h-52l19 90z" />
<glyph unicode="&#103;" horiz-adv-x="462" d="M275 459q-23 0 -45 -16q-22 -16 -30 -50l-52 -246q-2 -10 -2 -17q0 -25 14.5 -37q14.5 -12 34.5 -12q24 0 45 16q21 16 28 48l53 250q2 10 2 19q0 23 -14 34q-14 11 -34 11zt0 0zM353 546h123l-120 -562q-19 -87 -67.5 -130q-48.5 -43 -144.5 -43q-87 0 -123.5 29.5q-36.5 29.5 -36.5 98.5l120 0q5 -31 52 -31q27 0 47 14q20 14 26 40l20 94q-23 -32 -55.5 -52q-32.5 -20 -65.5 -20q-48 0 -81.5 27q-33.5 27 -33.5 84q0 10 1.5 20.5q1.5 10.5 3.5 22.5l57 269q9 41 27 70q18 29 42 47.5q24 18.5 51.5 27q27.5 8.5 55.5 8.5q38 0 61 -17q23 -17 32 -37z" />
<glyph unicode="&#104;" horiz-adv-x="464" d="M223 501q9 10 21 20.5q12 10.5 27 19q15 8.5 32.5 14q17.5 5.5 36.5 5.5q47 0 78 -25q31 -25 31 -81q0 -11 -1 -22.5q-1 -11.5 -4 -25.5l-87 -406h-123l83 387q1 3 1.5 11.5q0.5 8.5 0.5 13.5q0 47 -48 47q-26 0 -45 -17.5q-19 -17.5 -26 -49.5l-84 -392h-123l154 722l123 0z" />
<glyph unicode="&#105;" horiz-adv-x="223" d="M147 722h123l-26 -123h-123zM116 0h-123l116 546l123 0z" />
<glyph unicode="&#106;" horiz-adv-x="223" d="M146 722h123l-26 -123h-123zM232 546l-134 -632q-6 -28 -19.5 -46.5q-13.5 -18.5 -32 -30q-18.5 -11.5 -42 -16q-23.5 -4.5 -50.5 -4.5q-5 0 -12.5 0q-7.5 0 -15 0.5q-7.5 0.5 -13 1q-5.5 0.5 -6.5 0.5l21 95h17q14 0 24 9q10 9 16 38l124 585z" />
<glyph unicode="&#107;" horiz-adv-x="425" d="M188 343l156 203h129l-176 -220l60 -326h-137l-31 212l-41 -56l-33 -156h-123l154 722l123 0z" />
<glyph unicode="&#108;" horiz-adv-x="223" d="M115 0h-123l154 722l123 0z" />
<glyph unicode="&#109;" horiz-adv-x="696" d="M227 546l-12 -53q25 31 58.5 49q33.5 18 74.5 18q46 0 64.5 -15.5q18.5 -15.5 28.5 -48.5q20 27 56.5 45.5q36.5 18.5 75.5 18.5q49 0 79 -21q30 -21 30 -65q0 -11 -3 -31q-3 -20 -7 -39l-85 -404h-120l82 389q3 13 3 24q0 46 -51 46q-25 0 -43.5 -18q-18.5 -18 -26.5 -52l-82 -389h-120l82 389q3 13 3 24q0 46 -51 46q-25 0 -43.5 -18q-18.5 -18 -26.5 -52l-82 -389h-120l116 546z" />
<glyph unicode="&#110;" horiz-adv-x="464" d="M222 501q9 10 21 20.5q12 10.5 27 19q15 8.5 32.5 14q17.5 5.5 36.5 5.5q47 0 78 -25q31 -25 31 -81q0 -11 -1 -22.5q-1 -11.5 -4 -25.5l-87 -406h-123l83 387q1 3 1.5 11.5q0.5 8.5 0.5 13.5q0 47 -48 47q-26 0 -45 -17.5q-19 -17.5 -26 -49.5l-84 -392h-123l116 546l123 0z" />
<glyph unicode="&#111;" horiz-adv-x="477" d="M300 560q44 0 75 -10.5q31 -10.5 50.5 -27.5q19.5 -17 28 -40.5q8.5 -23.5 8.5 -48.5q0 -12 -2 -25q-2 -13 -5 -26l-46 -220q-8 -35 -24.5 -67.5q-16.5 -32.5 -44.5 -57q-28 -24.5 -68 -39q-40 -14.5 -94 -14.5q-45 0 -75.5 10q-30.5 10 -50 27q-19.5 17 -28 40.5q-8.5 23.5 -8.5 50.5q0 24 6 50l46 220q7 35 24 67.5q17 32.5 45 57q28 24.5 68 39q40 14.5 95 14.5zt0 0zM280 463q-29 0 -50.5 -13.5q-21.5 -13.5 -29.5 -51.5l-54 -252q-2 -10 -2 -20q0 -25 15 -35q15 -10 39 -10q30 0 50.5 13.5q20.5 13.5 28.5 51.5l54 252q3 15 3 23q0 24 -14.5 33t-39.5 9z" />
<glyph unicode="&#112;" horiz-adv-x="466" d="M291 459q-23 0 -45 -16q-22 -16 -30 -50l-52 -246q-2 -10 -2 -17q0 -25 14.5 -37q14.5 -12 34.5 -12q24 0 45 16q21 16 28 48l53 250q2 10 2 19q0 23 -14 34q-14 11 -34 11zt0 0zM249 546l-14 -61h1q23 38 56 56.5q33 18.5 65 18.5q24 0 44.5 -6q20.5 -6 36.5 -19q16 -13 25 -33.5q9 -20.5 9 -48.5q0 -24 -5 -46l-57 -269q-8 -39 -26 -68q-18 -29 -42 -48q-24 -19 -52 -28.5q-28 -9.5 -56 -9.5q-72 0 -89 74l-51 -240h-123l155 728z" />
<glyph unicode="&#113;" horiz-adv-x="466" d="M276 459q-23 0 -45 -16q-22 -16 -30 -50l-52 -246q-2 -10 -2 -17q0 -25 14.5 -37q14.5 -12 34.5 -12q24 0 45 16q21 16 28 48l53 250q2 10 2 19q0 23 -14 34q-14 11 -34 11zt0 0zM477 546l-155 -728h-123l51 240q-28 -37 -60 -55.5q-32 -18.5 -61 -18.5q-48 0 -81.5 27q-33.5 27 -33.5 84q0 10 1.5 20.5q1.5 10.5 3.5 22.5l57 269q9 41 27 70q18 29 42 47.5q24 18.5 51.5 27q27.5 8.5 55.5 8.5q32 0 57.5 -18.5q25.5 -18.5 31.5 -56.5l13 61z" />
<glyph unicode="&#114;" horiz-adv-x="306" d="M225 546l-22 -104h1q26 54 63.5 83q37.5 29 87.5 29l-29 -136q-18 0 -40 -2.5q-22 -2.5 -43 -13.5q-21 -11 -38.5 -35.5q-17.5 -24.5 -26.5 -67.5l-64 -299h-123l116 546z" />
<glyph unicode="&#115;" horiz-adv-x="445" d="M140 176q-5 -23 -7 -32.5q-2 -9.5 -2 -17.5q0 -24 13.5 -34.5q13.5 -10.5 35.5 -10.5q30 0 52 17.5q22 17.5 22 45.5q0 16 -9 31q-9 15 -33 33l-87 64q-25 18 -40.5 43q-15.5 25 -15.5 61q0 45 18 79q18 34 47 57.5q29 23.5 67 35.5q38 12 79 12q68 0 107.5 -32.5q39.5 -32.5 39.5 -94.5q0 -11 -1 -23.5q-1 -12.5 -6 -33.5l-120 0q4 17 5 24.5q1 7.5 1 12.5q0 50 -46 50q-26 0 -45.5 -15.5q-19.5 -15.5 -19.5 -45.5q0 -8 5.5 -19.5q5.5 -11.5 28.5 -28.5l75 -54q14 -10 27.5 -22.5q13.5 -12.5 24 -28.5q10.5 -16 17 -35.5q6.5 -19.5 6.5 -43.5q0 -26 -8 -58.5q-8 -32.5 -32 -61q-24 -28.5 -68 -47.5q-44 -19 -116 -19q-31 0 -57.5 8q-26.5 8 -46 24q-19.5 16 -30.5 39.5q-11 23.5 -11 55.5q0 10 1.5 23q1.5 13 8.5 42z" />
<glyph unicode="&#116;" horiz-adv-x="264" d="M272 693l-31 -147h56l-20 -97h-56l-65 -305q-2 -8 -3 -14.5q-1 -6.5 -1 -11.5q0 -16 10.5 -22q10.5 -6 37.5 -6l-20 -93q-8 -2 -26 -3q-18 -1 -35 -1q-48 0 -74 17.5q-26 17.5 -26 56.5q0 5 1 14.5q1 9.5 3 16.5l75 351h-52l20 97h52l31 147z" />
<glyph unicode="&#117;" horiz-adv-x="468" d="M235 546l-84 -394q-2 -10 -2 -22q0 -45 47 -45q30 0 48 17q18 17 25 49l84 395h123l-116 -546h-117l12 56q-26 -35 -56.5 -53.5q-30.5 -18.5 -70.5 -18.5q-47 0 -78 25.5q-31 25.5 -31 81.5q0 22 6 49l87 406z" />
<glyph unicode="&#118;" horiz-adv-x="436" d="M195 546l-13 -443h1l174 443h130l-243 -546h-168l-11 546z" />
<glyph unicode="&#119;" horiz-adv-x="620" d="M190 546l-28 -427h1l160 427h88l-22 -427h1l154 427h127l-221 -546h-149l19 326h-1l-118 -326h-149l11 546z" />
<glyph unicode="&#120;" horiz-adv-x="423" d="M209 546l30 -151l94 151h136l-194 -273l85 -273h-143l-29 156l-95 -156h-143l201 273l-78 273z" />
<glyph unicode="&#121;" horiz-adv-x="434" d="M208 546l-16 -419h2l159 419h129l-275 -615q-15 -34 -31 -56q-16 -22 -34 -34.5q-18 -12.5 -39.5 -17.5q-21.5 -5 -49.5 -5q-18 0 -33 1q-15 1 -32 3l20 93h45q14 0 24.5 12.5q10.5 12.5 10.5 29.5q0 6 -0.5 33q-0.5 27 -2.5 92q-2 65 -5 176.5q-3 111.5 -9 287.5z" />
<glyph unicode="&#122;" horiz-adv-x="388" d="M414 546l-21 -97l-260 -352h194l-21 -97h-332l22 103l260 346h-187l21 97z" />
<glyph unicode="&#123;" horiz-adv-x="294" d="M18 329q12 3 26 8q14 5 27.5 15q13.5 10 24.5 26q11 16 16 42l35 162q10 46 26.5 75q16.5 29 37.5 45q21 16 44 21.5q23 5.5 46 5.5q14 0 27 -1q13 -1 21 -3q-22 -8 -36 -19q-14 -11 -23 -23q-9 -12 -13 -24q-4 -12 -7 -24l-44 -209q-13 -63 -85 -97q20 -5 32 -26.5q12 -21.5 12 -51.5q0 -15 -7.5 -51q-7.5 -36 -16.5 -76.5q-9 -40.5 -16.5 -77q-7.5 -36.5 -7.5 -51.5q0 -27 13 -46q13 -19 39 -27q-33 -3 -58 -3q-62 0 -83.5 22q-21.5 22 -21.5 54q0 10 3.5 30.5q3.5 20.5 9 46q5.5 25.5 11.5 54q6 28.5 11.5 54q5.5 25.5 9 45q3.5 19.5 3.5 28.5q0 23 -11.5 43t-44.5 33z" />
<glyph unicode="&#124;" horiz-adv-x="183" d="M126 722h88l-154 -722l-88 0z" />
<glyph unicode="&#125;" horiz-adv-x="294" d="M274 329q-28 -9 -45.5 -22.5q-17.5 -13.5 -28.5 -28.5q-11 -15 -16.5 -31.5q-5.5 -16.5 -8.5 -31.5l-39 -183q-5 -21 -13.5 -41.5q-8.5 -20.5 -25.5 -36q-17 -15.5 -43.5 -25.5q-26.5 -10 -66.5 -10q-26 0 -56 3q36 10 59.5 37q23.5 27 31.5 64l43 200q4 20 13 38q9 18 21 32q12 14 25.5 23.5q13.5 9.5 26.5 12.5q-46 28 -46 72q0 7 4 27.5q4 20.5 9.5 47.5q5.5 27 12 57q6.5 30 12 57q5.5 27 9.5 47.5q4 20.5 4 28.5q0 17 -9 33.5q-9 16.5 -36 25.5q9 2 22.5 3q13.5 1 27.5 1q19 0 37 -3.5q18 -3.5 31.5 -14q13.5 -10.5 21.5 -28.5q8 -18 8 -46q0 -11 -3.5 -32q-3.5 -21 -8 -46q-4.5 -25 -10.5 -51.5q-6 -26.5 -10.5 -49.5q-4.5 -23 -8 -40q-3.5 -17 -3.5 -23q0 -18 6 -29.5q6 -11.5 14.5 -19q8.5 -7.5 19 -11.5t19.5 -6z" />
<glyph unicode="&#126;" horiz-adv-x="468" d="M7 228q45 63 78.5 92q33.5 29 71.5 29q34 0 58.5 -10q24.5 -10 43.5 -21.5q19 -11.5 34 -21.5q15 -10 31 -10q17 0 38.5 16.5q21.5 16.5 50.5 55.5l42 -68q-42 -65 -81 -91.5q-39 -26.5 -74 -26.5q-24 0 -46.5 9.5q-22.5 9.5 -42.5 21.5q-20 12 -39 21.5q-19 9.5 -36 9.5q-16 0 -28 -7.5q-12 -7.5 -22.5 -18.5q-10.5 -11 -19.5 -24q-9 -13 -19 -24z" />
<glyph unicode="&#160;" horiz-adv-x="240" />
<glyph unicode="&#163;" horiz-adv-x="500" d="M-19 75q38 25 65 50q27 25 44.5 53.5q17.5 28.5 26 61.5q8.5 33 8.5 74l-93 0l15 70h62q-10 25 -15.5 46.5q-5.5 21.5 -5.5 47.5q0 57 20 104.5q20 47.5 54.5 81q34.5 33.5 82 52.5q47.5 19 101.5 19q85 0 129.5 -35q44.5 -35 44.5 -105q0 -14 -3 -32q-3 -18 -11 -58l-123 0q5 24 7 36.5q2 12.5 2 21.5q0 69 -68 69q-20 0 -39 -9q-19 -9 -34 -26.5q-15 -17.5 -24 -42.5q-9 -25 -9 -56q0 -24 6.5 -51.5q6.5 -27.5 17.5 -62.5l142 0l-15 -70h-118q0 -66 -37.5 -118q-37.5 -52 -115.5 -109l1 0q29 16 55.5 22q26.5 6 46.5 6q15 0 30.5 -3.5q15.5 -3.5 31.5 -7.5q16 -4 31 -7.5q15 -3.5 27 -3.5q19 0 41 9.5q22 9.5 48 25.5l6 -109q-57 -36 -127 -36q-25 0 -48 4.5q-23 4.5 -44.5 10q-21.5 5.5 -42.5 10q-21 4.5 -42 4.5q-46 0 -114 -31z" />
<glyph unicode="&#164;" horiz-adv-x="606" d="M220 603q29 18 60.5 28.5q31.5 10.5 67.5 10.5q67 0 112 -39l120 99l40 -52l-120 -100q19 -36 19 -77q0 -45 -18.5 -84.5q-18.5 -39.5 -50.5 -74.5l78 -100l-62 -51l-78 99q-29 -18 -59.5 -28.5q-30.5 -10.5 -66.5 -10.5q-71 0 -114 39l-121 -99l-40 51l120 100q-18 34 -18 74q0 46 19 87.5q19 41.5 49 74.5l-78 100l62 52zM333 567q-31 0 -61 -13.5q-30 -13.5 -53.5 -36q-23.5 -22.5 -38 -52q-14.5 -29.5 -14.5 -61.5q0 -46 30.5 -76q30.5 -30 79.5 -30q31 0 61 13q30 13 53 35.5q23 22.5 37.5 52q14.5 29.5 14.5 61.5q0 45 -30.5 76t-78.5 31z" />
<glyph unicode="&#165;" horiz-adv-x="500" d="M206 722l37 -278l168 278h155l-211 -308h125l-19 -90h-167l-11 -14l-17 -82h175l-19 -90h-175l-30 -138h-137l30 138h-175l19 90h175l17 82l-6 14h-166l19 90h125l-74 308z" />
<glyph unicode="&#166;" horiz-adv-x="183" d="M126 722h88l-60 -282h-88zM32 282h88l-60 -282l-88 0z" />
<glyph unicode="&#167;" horiz-adv-x="504" d="M167 463q-29 23 -29 76q0 47 20 84.5q20 37.5 51.5 63q31.5 25.5 70.5 39q39 13.5 77 13.5q25 0 51 -6.5q26 -6.5 47 -22q21 -15.5 34.5 -41.5q13.5 -26 13.5 -65q0 -4 -0.5 -14.5q-0.5 -10.5 -1.5 -15.5l-122 0q2 8 2 19q0 23 -15 34q-15 11 -33 11q-11 0 -23.5 -4.5q-12.5 -4.5 -23.5 -12q-11 -7.5 -18 -17.5q-7 -10 -7 -21q0 -17 21.5 -49.5q21.5 -32.5 73.5 -75.5q28 -23 48 -41.5q20 -18.5 33 -36q13 -17.5 19 -34.5q6 -17 6 -37q0 -26 -6.5 -51.5q-6.5 -25.5 -20.5 -49.5q-14 -24 -36 -44q-22 -20 -53 -34q18 -25 26 -50q8 -25 8 -52q0 -48 -16.5 -85.5q-16.5 -37.5 -46.5 -64q-30 -26.5 -72.5 -40q-42.5 -13.5 -94.5 -13.5q-26 0 -53 6q-27 6 -49.5 21q-22.5 15 -37 40.5q-14.5 25.5 -14.5 64.5q0 23 6 50l123 0q-3 -15 -3 -27q0 -31 15.5 -44.5q15.5 -13.5 35.5 -13.5q12 0 26.5 5.5q14.5 5.5 26.5 15.5q12 10 20.5 24q8.5 14 8.5 31q0 25 -19 49q-19 24 -47.5 49.5q-28.5 25.5 -60.5 54q-32 28.5 -58 62.5q-18 25 -18 65q0 52 29 102.5q29 50.5 86 82.5zt0 0zM284 189q10 0 20 6q10 6 18.5 15.5q8.5 9.5 13.5 21.5q5 12 5 24q0 22 -12 34l-108 106q-18 -7 -34.5 -27q-16.5 -20 -16.5 -45q0 -5 1.5 -12.5q1.5 -7.5 6.5 -13.5z" />
<glyph unicode="&#168;" horiz-adv-x="466" d="M104 722h109l-23 -109h-109zM281 722h109l-23 -109l-109 0z" />
<glyph unicode="&#169;" horiz-adv-x="737" d="M449 737q65 0 121.5 -19q56.5 -19 98.5 -56q42 -37 66 -90q24 -53 24 -122q0 -72 -19.5 -134.5q-19.5 -62.5 -53.5 -114.5q-34 -52 -79.5 -93q-45.5 -41 -98 -69q-52.5 -28 -108.5 -43q-56 -15 -111 -15q-65 0 -121.5 19.5q-56.5 19.5 -98.5 56q-42 36.5 -66 90.5q-24 54 -24 123q0 72 19.5 134.5q19.5 62.5 53.5 114.5q34 52 80 92.5q46 40.5 98 68.5q52 28 108 42.5q56 14.5 111 14.5zt0 0zM431 650q-63 0 -124 -27q-61 -27 -109.5 -75.5q-48.5 -48.5 -78 -115q-29.5 -66.5 -29.5 -144.5q0 -50 16 -91q16 -41 44.5 -69.5q28.5 -28.5 68.5 -44q40 -15.5 88 -15.5q61 0 122 27.5q61 27.5 110 76q49 48.5 79 115q30 66.5 30 144.5q0 50 -16 90.5q-16 40.5 -45 69q-29 28.5 -69 44q-40 15.5 -87 15.5zt0 0zM551 303q-14 -38 -36.5 -67q-22.5 -29 -50.5 -49q-28 -20 -60 -30.5q-32 -10.5 -65 -10.5q-40 0 -71.5 12.5q-31.5 12.5 -53 34q-21.5 21.5 -32.5 51.5q-11 30 -11 66q0 55 20 104q20 49 55 86q35 37 82 58q47 21 101 21q68 0 106 -36q38 -36 38 -117l-86 0q0 35 -22.5 50.5q-22.5 15.5 -54.5 15.5q-31 0 -56 -14.5q-25 -14.5 -42 -38q-17 -23.5 -26.5 -52.5q-9.5 -29 -9.5 -58q0 -42 21.5 -69q21.5 -27 59.5 -27q37 0 65 17.5q28 17.5 39 52.5z" />
<glyph unicode="&#171;" horiz-adv-x="372" d="M370 320l-114 -66l81 -87l-23 -107l-122 137l22 102l178 126zM211 425l-22 -105l-114 -66l81 -87l-23 -107l-120 137l22 102z" />
<glyph unicode="&#172;" horiz-adv-x="484" d="M481 300l-56 -262h-88l37 174h-342l19 88z" />
<glyph unicode="&#173;" horiz-adv-x="325" d="M308 300l-18 -88h-255l18 88z" />
<glyph unicode="&#174;" horiz-adv-x="737" d="M263 156h-87l86 407h152q69 0 107 -19.5q38 -19.5 38 -69.5q0 -35 -11 -61q-11 -26 -28.5 -43.5q-17.5 -17.5 -40 -26.5q-22.5 -9 -44.5 -9l66 -178h-103l-58 171h-41zM314 396h77q29 0 51.5 13.5q22.5 13.5 22.5 50.5q0 21 -22 27.5q-22 6.5 -47 6.5h-61zM449 737q65 0 121.5 -19.5q56.5 -19.5 98 -56q41.5 -36.5 65.5 -90q24 -53.5 24 -122.5q0 -108 -42.5 -194.5q-42.5 -86.5 -110 -147.5q-67.5 -61 -151 -93.5q-83.5 -32.5 -165.5 -32.5q-65 0 -121.5 19.5q-56.5 19.5 -98.5 56q-42 36.5 -66 90q-24 53.5 -24 122.5q0 108 42.5 194.5q42.5 86.5 110 147.5q67.5 61 151 93.5q83.5 32.5 166.5 32.5zt0 0zM431 649q-63 0 -124 -27q-61 -27 -109.5 -75.5q-48.5 -48.5 -78 -115q-29.5 -66.5 -29.5 -144.5q0 -50 16 -90.5q16 -40.5 44.5 -69q28.5 -28.5 68.5 -44q40 -15.5 88 -15.5q61 0 121.5 27.5q60.5 27.5 109 75.5q48.5 48 79 114.5q30.5 66.5 30.5 144.5q0 50 -16 90.5q-16 40.5 -45 69q-29 28.5 -68.5 44t-86.5 15.5z" />
<glyph unicode="&#176;" horiz-adv-x="384" d="M214 735q52 0 84 -32.5q32 -32.5 32 -81.5q0 -35 -15.5 -66.5q-15.5 -31.5 -40.5 -55.5q-25 -24 -57 -38q-32 -14 -65 -14q-52 0 -84 32q-32 32 -32 81q0 36 15 67.5q15 31.5 40 55.5q25 24 57 38q32 14 66 14zt0 0zM197 658q-14 0 -28.5 -6q-14.5 -6 -26.5 -16.5q-12 -10.5 -20 -25.5q-8 -15 -8 -32q0 -21 13.5 -37.5q13.5 -16.5 42.5 -16.5q14 0 28.5 6q14.5 6 26.5 17q12 11 20 25.5q8 14.5 8 32.5q0 18 -13.5 35.5t-42.5 17.5z" />
<glyph unicode="&#177;" horiz-adv-x="487" d="M344 638l-34 -162h168l-19 -88h-168l-33 -158h-88l33 158h-168l19 88h168l34 162zM411 158l-18 -88h-424l18 88z" />
<glyph unicode="&#180;" horiz-adv-x="318" d="M301 722l-172 -136h-98l112 136z" />
<glyph unicode="&#181;" horiz-adv-x="540" d="M251 546l-70 -328q-5 -23 -5 -39q0 -33 17.5 -52.5q17.5 -19.5 56.5 -19.5q53 0 83.5 28.5q30.5 28.5 41.5 82.5l70 328h126l-116 -546h-120l12 56q-31 -42 -63 -57q-32 -15 -59 -15q-35 0 -54 8.5q-19 8.5 -33 21.5l-43 -203h-123l156 735z" />
<glyph unicode="&#182;" horiz-adv-x="540" d="M199 391q-33 0 -57.5 11q-24.5 11 -40 29.5q-15.5 18.5 -23.5 42.5q-8 24 -8 50q0 37 14.5 75q14.5 38 41.5 68q27 30 64 49q37 19 82 19h335l-25 -117h-47l-153 -717h-113l153 717h-62l-153 -717h-113l105 490z" />
<glyph unicode="&#183;" horiz-adv-x="319" d="M110 249h123l-26 -123l-123 0z" />
<glyph unicode="&#184;" horiz-adv-x="437" d="M271 0l-8 -37q21 -1 35 -6.5q14 -5.5 22.5 -14q8.5 -8.5 11.5 -19q3 -10.5 3 -21.5q0 -28 -11 -49q-11 -21 -29 -35.5q-18 -14.5 -42 -21.5q-24 -7 -51 -7q-19 0 -39 2q-20 2 -36 6l13 60q17 -5 35 -6.5q18 -1.5 32 -1.5q18 0 31.5 10.5q13.5 10.5 13.5 27.5q0 9 -9 14.5q-9 5.5 -32 5.5h-9l19 93z" />
<glyph unicode="&#187;" horiz-adv-x="377" d="M372 304l-20 -98l-179 -130l22 105l108 79l-76 68l22 107zM66 435l123 -131l-20 -98l-179 -130l22 105l108 79l-76 68z" />
<glyph unicode="&#192;" horiz-adv-x="539" d="M283 722h184l7 -722h-148l6 188h-155l-83 -188h-147zM337 295l17 336l-138 -336zM437 780h-100l-138 164l172 0z" />
<glyph unicode="&#193;" horiz-adv-x="539" d="M284 722h184l6 -722h-148l6 188h-155l-83 -188h-147zM338 295l16 336h-5l-132 -336zM633 944l-208 -164h-100l136 164z" />
<glyph unicode="&#194;" horiz-adv-x="539" d="M284 722h184l6 -722h-148l6 188h-155l-83 -188h-147zM338 295l16 336h-5l-132 -336zM489 944l76 -164h-100l-58 97l-100 -97h-100l146 164z" />
<glyph unicode="&#195;" horiz-adv-x="539" d="M284 722h184l6 -722h-148l6 188h-155l-83 -188h-147zM338 295l16 336h-5l-132 -336zM596 930q-9 -27 -23 -52q-14 -25 -32 -44.5q-18 -19.5 -39 -31q-21 -11.5 -45 -11.5q-12 0 -28.5 4.5q-16.5 4.5 -32.5 9.5q-16 5 -30 9.5q-14 4.5 -23 4.5q-15 0 -30.5 -8.5q-15.5 -8.5 -26.5 -33.5l-51 0q23 58 54.5 97q31.5 39 78.5 39q16 0 32 -4.5q16 -4.5 31.5 -9.5q15.5 -5 30 -9.5q14.5 -4.5 28.5 -4.5q17 0 30.5 10q13.5 10 24.5 35z" />
<glyph unicode="&#196;" horiz-adv-x="539" d="M284 722h184l6 -722h-148l6 188h-155l-83 -188h-147zM338 295l16 336h-5l-132 -336zM377 893l-23 -109h-109l23 109zM561 893l-23 -109h-109l23 109z" />
<glyph unicode="&#197;" horiz-adv-x="539" d="M284 722h184l6 -722h-148l6 188h-155l-83 -188h-147zM338 295l16 336h-5l-132 -336zM434 977q21 0 36.5 -7q15.5 -7 25.5 -18.5q10 -11.5 14.5 -25.5q4.5 -14 4.5 -28q0 -28 -11.5 -51q-11.5 -23 -29.5 -40q-18 -17 -40 -26.5q-22 -9.5 -44 -9.5q-22 0 -37.5 7.5q-15.5 7.5 -25.5 19q-10 11.5 -15 26q-5 14.5 -5 29.5q0 28 11.5 50.5q11.5 22.5 30 39q18.5 16.5 41 25.5q22.5 9 44.5 9zt0 0zM422 920q-20 0 -39 -14.5q-19 -14.5 -19 -44.5q0 -14 9 -23.5q9 -9.5 29 -9.5q20 0 37.5 14q17.5 14 17.5 46q0 12 -8 22t-27 10z" />
<glyph unicode="&#198;" horiz-adv-x="735" d="M795 722l-24 -110h-249l-35 -168h227l-24 -110h-227l-47 -224h249l-24 -110h-386l40 188h-118l-83 -188h-147l337 722zM318 295l67 317h-38l-130 -317z" />
<glyph unicode="&#199;" horiz-adv-x="531" d="M396 487q7 30 9.5 47q2.5 17 2.5 29q0 34 -15.5 48q-15.5 14 -47.5 14q-44 0 -69 -26.5q-25 -26.5 -40 -95.5q-22 -102 -35.5 -165q-13.5 -63 -21 -100.5q-7.5 -37.5 -10 -55q-2.5 -17.5 -2.5 -26.5q0 -35 15.5 -49q15.5 -14 47.5 -14q21 0 38.5 7q17.5 7 32.5 25q15 18 26.5 50q11.5 32 19.5 82l137 0q-9 -54 -28.5 -103q-19.5 -49 -50 -86.5q-30.5 -37.5 -73 -60q-42.5 -22.5 -97.5 -23.5l-7 -33q49 -4 68 -24.5q19 -20.5 19 -52.5q0 -26 -11 -50q-11 -24 -31.5 -42q-20.5 -18 -50 -29q-29.5 -11 -66.5 -11q-23 0 -48.5 3q-25.5 3 -42.5 7l15 72q15 -5 36 -7.5q21 -2.5 40 -2.5q26 0 42 11q16 11 16 33q0 15 -15 20.5q-15 5.5 -45 5.5l21 99q-43 6 -71.5 19q-28.5 13 -46 32.5q-17.5 19.5 -24.5 45.5q-7 26 -7 60q0 13 1.5 28q1.5 15 8 49.5q6.5 34.5 20 97q13.5 62.5 36.5 172.5q27 128 96.5 188q69.5 60 181.5 60q88 0 133 -40q45 -40 45 -112q0 -14 -2.5 -33.5q-2.5 -19.5 -12.5 -62.5z" />
<glyph unicode="&#200;" horiz-adv-x="472" d="M532 722l-24 -110h-249l-35 -168h227l-24 -110h-227l-47 -224h249l-24 -110h-386l154 722zM432 780h-100l-138 164l172 0z" />
<glyph unicode="&#201;" horiz-adv-x="472" d="M532 722l-24 -110h-249l-35 -168h227l-24 -110h-227l-47 -224h249l-24 -110h-386l154 722zM419 944h172l-208 -164l-100 0z" />
<glyph unicode="&#202;" horiz-adv-x="472" d="M532 722l-24 -110h-249l-35 -168h227l-24 -110h-227l-47 -224h249l-24 -110h-386l154 722zM527 780h-100l-58 97l-100 -97h-100l146 164l136 0z" />
<glyph unicode="&#203;" horiz-adv-x="472" d="M532 722l-24 -110h-249l-35 -168h227l-24 -110h-227l-47 -224h249l-24 -110h-386l154 722zM233 893h109l-23 -109h-109zM417 893h109l-23 -109l-109 0z" />
<glyph unicode="&#204;" horiz-adv-x="237" d="M129 0h-137l154 722h137zM293 780h-100l-138 164l172 0z" />
<glyph unicode="&#205;" horiz-adv-x="237" d="M129 0h-137l154 722h137zM299 944h172l-208 -164l-100 0z" />
<glyph unicode="&#206;" horiz-adv-x="237" d="M129 0h-137l154 722h137zM405 780h-100l-58 97l-100 -97h-100l146 164l136 0z" />
<glyph unicode="&#207;" horiz-adv-x="237" d="M129 0h-137l154 722h137zM104 893h109l-23 -109h-109zM288 893h109l-23 -109l-109 0z" />
<glyph unicode="&#208;" horiz-adv-x="560" d="M63 334h-57l24 110h57l59 278h242q36 0 67 -8q31 -8 54.5 -29q23.5 -21 37 -56.5q13.5 -35.5 13.5 -90.5q0 -11 -2 -40q-2 -29 -8 -68.5q-6 -39.5 -17 -87q-11 -47.5 -27.5 -95q-16.5 -47.5 -40 -92.5q-23.5 -45 -56 -79.5q-32.5 -34.5 -74 -55q-41.5 -20.5 -93.5 -20.5h-250zM224 444h103l-24 -110h-103l-48 -227h86q28 0 49.5 14.5q21.5 14.5 38 39q16.5 24.5 29 56.5q12.5 32 21.5 66q9 35 17 69.5q8 34.5 13 66q5 31.5 8 58q3 26.5 3 44.5q0 94 -67 94l-90 0z" />
<glyph unicode="&#209;" horiz-adv-x="560" d="M294 722l88 -525h1q0 27 4 61q4 34 10 70q6 36 13 72q7 36 13 66l55 256h128l-154 -722h-148l-88 524h-1q0 -26 -4 -61q-4 -35 -10 -72q-6 -37 -13 -72.5q-7 -35.5 -13 -62.5l-55 -256h-128l154 722zM615 930q-9 -27 -23 -52q-14 -25 -32 -44.5q-18 -19.5 -39 -31q-21 -11.5 -45 -11.5q-12 0 -28.5 4.5q-16.5 4.5 -32.5 9.5q-16 5 -30 9.5q-14 4.5 -23 4.5q-15 0 -30.5 -8.5q-15.5 -8.5 -26.5 -33.5l-51 0q23 58 54.5 97q31.5 39 78.5 39q16 0 32 -4.5q16 -4.5 31.5 -9.5q15.5 -5 30 -9.5q14.5 -4.5 28.5 -4.5q17 0 30.5 10q13.5 10 24.5 35z" />
<glyph unicode="&#210;" horiz-adv-x="557" d="M379 735q43 0 78 -8.5q35 -8.5 59.5 -27.5q24.5 -19 38 -49.5q13.5 -30.5 13.5 -75.5q0 -9 -0.5 -18q-0.5 -9 -2.5 -23q-2 -14 -6 -36q-4 -22 -11.5 -58q-7.5 -36 -18.5 -88q-11 -52 -26 -125q-15 -69 -41.5 -115.5q-26.5 -46.5 -63 -75q-36.5 -28.5 -82 -40.5q-45.5 -12 -97.5 -12q-43 0 -78.5 8.5q-35.5 8.5 -61 27.5q-25.5 19 -39.5 50q-14 31 -14 76q0 9 0.5 17.5q0.5 8.5 2.5 22.5q2 14 6.5 35.5q4.5 21.5 11.5 56.5q7 35 18 86.5q11 51.5 26 124.5q14 68 41.5 115q27.5 47 65 76.5q37.5 29.5 84 42.5q46.5 13 97.5 13zt0 0zM356 625q-49 0 -79 -31.5q-30 -31.5 -42 -89.5q-17 -78 -28 -131.5q-11 -53.5 -19 -89.5q-8 -36 -12 -57q-4 -21 -6 -32.5q-2 -11.5 -2.5 -17q-0.5 -5.5 -0.5 -10.5q0 -73 75 -73q45 0 75 29.5q30 29.5 42 86.5q25 116 38.5 180.5q13.5 64.5 20 96.5q6.5 32 7.5 42.5q1 10.5 1 18.5q0 37 -17.5 57.5q-17.5 20.5 -52.5 20.5zt0 0zM469 780h-100l-138 164l172 0z" />
<glyph unicode="&#211;" horiz-adv-x="557" d="M379 735q43 0 78 -8.5q35 -8.5 59.5 -27.5q24.5 -19 38 -49.5q13.5 -30.5 13.5 -75.5q0 -9 -0.5 -18q-0.5 -9 -2.5 -23q-2 -14 -6 -36q-4 -22 -11.5 -58q-7.5 -36 -18.5 -88q-11 -52 -26 -125q-15 -69 -41.5 -115.5q-26.5 -46.5 -63 -75q-36.5 -28.5 -82 -40.5q-45.5 -12 -97.5 -12q-43 0 -78.5 8.5q-35.5 8.5 -61 27.5q-25.5 19 -39.5 50q-14 31 -14 76q0 9 0.5 17.5q0.5 8.5 2.5 22.5q2 14 6.5 35.5q4.5 21.5 11.5 56.5q7 35 18 86.5q11 51.5 26 124.5q14 68 41.5 115q27.5 47 65 76.5q37.5 29.5 84 42.5q46.5 13 97.5 13zt0 0zM356 625q-49 0 -79 -31.5q-30 -31.5 -42 -89.5q-17 -78 -28 -131.5q-11 -53.5 -19 -89.5q-8 -36 -12 -57q-4 -21 -6 -32.5q-2 -11.5 -2.5 -17q-0.5 -5.5 -0.5 -10.5q0 -73 75 -73q45 0 75 29.5q30 29.5 42 86.5q25 116 38.5 180.5q13.5 64.5 20 96.5q6.5 32 7.5 42.5q1 10.5 1 18.5q0 37 -17.5 57.5q-17.5 20.5 -52.5 20.5zt0 0zM634 944l-208 -164h-100l136 164z" />
<glyph unicode="&#212;" horiz-adv-x="557" d="M379 735q43 0 78 -8.5q35 -8.5 59.5 -27.5q24.5 -19 38 -49.5q13.5 -30.5 13.5 -75.5q0 -9 -0.5 -18q-0.5 -9 -2.5 -23q-2 -14 -6 -36q-4 -22 -11.5 -58q-7.5 -36 -18.5 -88q-11 -52 -26 -125q-15 -69 -41.5 -115.5q-26.5 -46.5 -63 -75q-36.5 -28.5 -82 -40.5q-45.5 -12 -97.5 -12q-43 0 -78.5 8.5q-35.5 8.5 -61 27.5q-25.5 19 -39.5 50q-14 31 -14 76q0 9 0.5 17.5q0.5 8.5 2.5 22.5q2 14 6.5 35.5q4.5 21.5 11.5 56.5q7 35 18 86.5q11 51.5 26 124.5q14 68 41.5 115q27.5 47 65 76.5q37.5 29.5 84 42.5q46.5 13 97.5 13zt0 0zM356 625q-49 0 -79 -31.5q-30 -31.5 -42 -89.5q-17 -78 -28 -131.5q-11 -53.5 -19 -89.5q-8 -36 -12 -57q-4 -21 -6 -32.5q-2 -11.5 -2.5 -17q-0.5 -5.5 -0.5 -10.5q0 -73 75 -73q45 0 75 29.5q30 29.5 42 86.5q25 116 38.5 180.5q13.5 64.5 20 96.5q6.5 32 7.5 42.5q1 10.5 1 18.5q0 37 -17.5 57.5q-17.5 20.5 -52.5 20.5zt0 0zM489 944l76 -164h-100l-58 97l-100 -97h-100l146 164z" />
<glyph unicode="&#213;" horiz-adv-x="557" d="M379 735q43 0 78 -8.5q35 -8.5 59.5 -27.5q24.5 -19 38 -49.5q13.5 -30.5 13.5 -75.5q0 -9 -0.5 -18q-0.5 -9 -2.5 -23q-2 -14 -6 -36q-4 -22 -11.5 -58q-7.5 -36 -18.5 -88q-11 -52 -26 -125q-15 -69 -41.5 -115.5q-26.5 -46.5 -63 -75q-36.5 -28.5 -82 -40.5q-45.5 -12 -97.5 -12q-43 0 -78.5 8.5q-35.5 8.5 -61 27.5q-25.5 19 -39.5 50q-14 31 -14 76q0 9 0.5 17.5q0.5 8.5 2.5 22.5q2 14 6.5 35.5q4.5 21.5 11.5 56.5q7 35 18 86.5q11 51.5 26 124.5q14 68 41.5 115q27.5 47 65 76.5q37.5 29.5 84 42.5q46.5 13 97.5 13zt0 0zM356 625q-49 0 -79 -31.5q-30 -31.5 -42 -89.5q-17 -78 -28 -131.5q-11 -53.5 -19 -89.5q-8 -36 -12 -57q-4 -21 -6 -32.5q-2 -11.5 -2.5 -17q-0.5 -5.5 -0.5 -10.5q0 -73 75 -73q45 0 75 29.5q30 29.5 42 86.5q25 116 38.5 180.5q13.5 64.5 20 96.5q6.5 32 7.5 42.5q1 10.5 1 18.5q0 37 -17.5 57.5q-17.5 20.5 -52.5 20.5zt0 0zM609 930q-9 -27 -23 -52q-14 -25 -32 -44.5q-18 -19.5 -39 -31q-21 -11.5 -45 -11.5q-12 0 -28.5 4.5q-16.5 4.5 -32.5 9.5q-16 5 -30 9.5q-14 4.5 -23 4.5q-15 0 -30.5 -8.5q-15.5 -8.5 -26.5 -33.5l-51 0q23 58 54.5 97q31.5 39 78.5 39q16 0 32 -4.5q16 -4.5 31.5 -9.5q15.5 -5 30 -9.5q14.5 -4.5 28.5 -4.5q17 0 30.5 10q13.5 10 24.5 35z" />
<glyph unicode="&#214;" horiz-adv-x="557" d="M379 735q43 0 78 -8.5q35 -8.5 59.5 -27.5q24.5 -19 38 -49.5q13.5 -30.5 13.5 -75.5q0 -9 -0.5 -18q-0.5 -9 -2.5 -23q-2 -14 -6 -36q-4 -22 -11.5 -58q-7.5 -36 -18.5 -88q-11 -52 -26 -125q-15 -69 -41.5 -115.5q-26.5 -46.5 -63 -75q-36.5 -28.5 -82 -40.5q-45.5 -12 -97.5 -12q-43 0 -78.5 8.5q-35.5 8.5 -61 27.5q-25.5 19 -39.5 50q-14 31 -14 76q0 9 0.5 17.5q0.5 8.5 2.5 22.5q2 14 6.5 35.5q4.5 21.5 11.5 56.5q7 35 18 86.5q11 51.5 26 124.5q14 68 41.5 115q27.5 47 65 76.5q37.5 29.5 84 42.5q46.5 13 97.5 13zt0 0zM356 625q-49 0 -79 -31.5q-30 -31.5 -42 -89.5q-17 -78 -28 -131.5q-11 -53.5 -19 -89.5q-8 -36 -12 -57q-4 -21 -6 -32.5q-2 -11.5 -2.5 -17q-0.5 -5.5 -0.5 -10.5q0 -73 75 -73q45 0 75 29.5q30 29.5 42 86.5q25 116 38.5 180.5q13.5 64.5 20 96.5q6.5 32 7.5 42.5q1 10.5 1 18.5q0 37 -17.5 57.5q-17.5 20.5 -52.5 20.5zt0 0zM385 893l-23 -109h-109l23 109zM569 893l-23 -109h-109l23 109z" />
<glyph unicode="&#215;" horiz-adv-x="480" d="M54 386l91 75l109 -138l173 143l59 -75l-173 -143l113 -143l-91 -75l-113 143l-167 -138l-59 75l167 138z" />
<glyph unicode="&#216;" horiz-adv-x="557" d="M637 713l-74 -90q2 -11 3.5 -23q1.5 -12 1.5 -26q0 -9 -0.5 -18q-0.5 -9 -2.5 -23q-2 -14 -6 -36q-4 -22 -11.5 -58q-7.5 -36 -18.5 -88q-11 -52 -26 -125q-15 -69 -41.5 -115.5q-26.5 -46.5 -63 -75q-36.5 -28.5 -82 -40.5q-45.5 -12 -97.5 -12q-48 0 -86.5 10.5q-38.5 10.5 -64.5 35.5l-64 -77l-45 34l77 93q-10 27 -10 66q0 9 0.5 17.5q0.5 8.5 2.5 22.5q2 14 6.5 35.5q4.5 21.5 11.5 56.5q7 35 18 86.5q11 51.5 26 124.5q14 68 41.5 115q27.5 47 65 76.5q37.5 29.5 84 42.5q46.5 13 97.5 13q53 0 93.5 -13q40.5 -13 64.5 -42l56 67zM426 547q0 37 -17.5 57.5q-17.5 20.5 -52.5 20.5q-49 0 -78.5 -31.5q-29.5 -31.5 -42.5 -89.5l-54 -251zM168 149q8 -56 74 -56q91 0 117 116l49 228z" />
<glyph unicode="&#217;" horiz-adv-x="557" d="M284 722l-108 -508q-6 -27 -6 -48q0 -69 73 -69q51 0 77 28q26 28 39 89l108 508h137l-112 -528q-21 -98 -86.5 -152.5q-65.5 -54.5 -185.5 -54.5q-100 0 -146 37.5q-46 37.5 -46 108.5q0 30 7 61l112 528zM456 780h-100l-138 164l172 0z" />
<glyph unicode="&#218;" horiz-adv-x="557" d="M284 722l-108 -508q-6 -27 -6 -48q0 -69 73 -69q51 0 77 28q26 28 39 89l108 508h137l-112 -528q-21 -98 -86.5 -152.5q-65.5 -54.5 -185.5 -54.5q-100 0 -146 37.5q-46 37.5 -46 108.5q0 30 7 61l112 528zM636 944l-208 -164h-100l136 164z" />
<glyph unicode="&#219;" horiz-adv-x="557" d="M284 722l-108 -508q-6 -27 -6 -48q0 -69 73 -69q51 0 77 28q26 28 39 89l108 508h137l-112 -528q-21 -98 -86.5 -152.5q-65.5 -54.5 -185.5 -54.5q-100 0 -146 37.5q-46 37.5 -46 108.5q0 30 7 61l112 528zM493 944l76 -164h-100l-58 97l-100 -97h-100l146 164z" />
<glyph unicode="&#220;" horiz-adv-x="557" d="M284 722l-108 -508q-6 -27 -6 -48q0 -69 73 -69q51 0 77 28q26 28 39 89l108 508h137l-112 -528q-21 -98 -86.5 -152.5q-65.5 -54.5 -185.5 -54.5q-100 0 -146 37.5q-46 37.5 -46 108.5q0 30 7 61l112 528zM379 893l-23 -109h-109l23 109zM563 893l-23 -109h-109l23 109z" />
<glyph unicode="&#221;" horiz-adv-x="543" d="M269 722l37 -278l168 278h155l-283 -412l-66 -310h-137l66 310l-102 412zM623 944l-208 -164h-100l136 164z" />
<glyph unicode="&#222;" horiz-adv-x="544" d="M110 0h-137l154 722h137l-25 -115h122q44 0 73 -15q29 -15 46.5 -38q17.5 -23 24.5 -50q7 -27 7 -51q0 -46 -17 -94.5q-17 -48.5 -48.5 -88.5q-31.5 -40 -76.5 -65.5q-45 -25.5 -102 -25.5h-120zM171 286h69q26 0 49.5 9q23.5 9 41.5 26.5q18 17.5 28.5 43q10.5 25.5 10.5 58.5q0 15 -3.5 29q-3.5 14 -12.5 24.5q-9 10.5 -25.5 17q-16.5 6.5 -42.5 6.5l-69 0z" />
<glyph unicode="&#224;" horiz-adv-x="477" d="M208 230q-32 -18 -47 -47q-15 -29 -15 -57q0 -21 9.5 -35q9.5 -14 32.5 -14q29 0 52.5 17.5q23.5 17.5 31.5 54.5l28 133zM78 378q6 43 26 77q20 34 50 57.5q30 23.5 67.5 35.5q37.5 12 77.5 12q35 0 65 -6q30 -6 51.5 -19q21.5 -13 34 -33.5q12.5 -20.5 12.5 -48.5q0 -16 -4 -33l-72 -340q-3 -16 -5 -28q-2 -12 -2 -23q0 -17 6 -29l-129 0q-2 3 -2.5 9.5q-0.5 6.5 -0.5 9.5q0 7 1 16.5q1 9.5 3 16.5q-25 -32 -54 -50q-29 -18 -79 -18q-51 0 -82 25.5q-31 25.5 -31 79.5q0 88 48 141.5q48 53.5 134 85.5q71 26 103.5 50q32.5 24 32.5 59q0 15 -10.5 24.5q-10.5 9.5 -39.5 9.5q-26 0 -50 -17.5q-24 -17.5 -31 -63.5zM328 731l56 -136h-98l-116 136z" />
<glyph unicode="&#225;" horiz-adv-x="477" d="M208 230q-32 -18 -47 -47q-15 -29 -15 -57q0 -21 9.5 -35q9.5 -14 32.5 -14q29 0 52.5 17.5q23.5 17.5 31.5 54.5l28 133zM78 378q6 43 26 77q20 34 50 57.5q30 23.5 67.5 35.5q37.5 12 77.5 12q35 0 65 -6q30 -6 51.5 -19q21.5 -13 34 -33.5q12.5 -20.5 12.5 -48.5q0 -16 -4 -33l-72 -340q-3 -16 -5 -28q-2 -12 -2 -23q0 -17 6 -29l-129 0q-2 3 -2.5 9.5q-0.5 6.5 -0.5 9.5q0 7 1 16.5q1 9.5 3 16.5q-25 -32 -54 -50q-29 -18 -79 -18q-51 0 -82 25.5q-31 25.5 -31 79.5q0 88 48 141.5q48 53.5 134 85.5q71 26 103.5 50q32.5 24 32.5 59q0 15 -10.5 24.5q-10.5 9.5 -39.5 9.5q-26 0 -50 -17.5q-24 -17.5 -31 -63.5zM528 731l-172 -136h-98l112 136z" />
<glyph unicode="&#226;" horiz-adv-x="477" d="M208 230q-32 -18 -47 -47q-15 -29 -15 -57q0 -21 9.5 -35q9.5 -14 32.5 -14q29 0 52.5 17.5q23.5 17.5 31.5 54.5l28 133zM78 378q6 43 26 77q20 34 50 57.5q30 23.5 67.5 35.5q37.5 12 77.5 12q35 0 65 -6q30 -6 51.5 -19q21.5 -13 34 -33.5q12.5 -20.5 12.5 -48.5q0 -16 -4 -33l-72 -340q-3 -16 -5 -28q-2 -12 -2 -23q0 -17 6 -29l-129 0q-2 3 -2.5 9.5q-0.5 6.5 -0.5 9.5q0 7 1 16.5q1 9.5 3 16.5q-25 -32 -54 -50q-29 -18 -79 -18q-51 0 -82 25.5q-31 25.5 -31 79.5q0 88 48 141.5q48 53.5 134 85.5q71 26 103.5 50q32.5 24 32.5 59q0 15 -10.5 24.5q-10.5 9.5 -39.5 9.5q-26 0 -50 -17.5q-24 -17.5 -31 -63.5zM397 731l74 -136h-98l-50 72l-80 -72h-98l130 136z" />
<glyph unicode="&#227;" horiz-adv-x="477" d="M208 230q-32 -18 -47 -47q-15 -29 -15 -57q0 -21 9.5 -35q9.5 -14 32.5 -14q29 0 52.5 17.5q23.5 17.5 31.5 54.5l28 133zM78 378q6 43 26 77q20 34 50 57.5q30 23.5 67.5 35.5q37.5 12 77.5 12q35 0 65 -6q30 -6 51.5 -19q21.5 -13 34 -33.5q12.5 -20.5 12.5 -48.5q0 -16 -4 -33l-72 -340q-3 -16 -5 -28q-2 -12 -2 -23q0 -17 6 -29l-129 0q-2 3 -2.5 9.5q-0.5 6.5 -0.5 9.5q0 7 1 16.5q1 9.5 3 16.5q-25 -32 -54 -50q-29 -18 -79 -18q-51 0 -82 25.5q-31 25.5 -31 79.5q0 88 48 141.5q48 53.5 134 85.5q71 26 103.5 50q32.5 24 32.5 59q0 15 -10.5 24.5q-10.5 9.5 -39.5 9.5q-26 0 -50 -17.5q-24 -17.5 -31 -63.5zM191 602q44 113 111 113q13 0 26.5 -4q13.5 -4 26.5 -8.5q13 -4.5 25.5 -8q12.5 -3.5 23.5 -3.5q30 0 45 38l43 0q-20 -57 -50.5 -86.5q-30.5 -29.5 -64.5 -29.5q-9 0 -22.5 3.5q-13.5 3.5 -27.5 8q-14 4.5 -26.5 8.5q-12.5 4 -18.5 4q-33 0 -48 -35z" />
<glyph unicode="&#228;" horiz-adv-x="477" d="M208 230q-32 -18 -47 -47q-15 -29 -15 -57q0 -21 9.5 -35q9.5 -14 32.5 -14q29 0 52.5 17.5q23.5 17.5 31.5 54.5l28 133zM78 378q6 43 26 77q20 34 50 57.5q30 23.5 67.5 35.5q37.5 12 77.5 12q35 0 65 -6q30 -6 51.5 -19q21.5 -13 34 -33.5q12.5 -20.5 12.5 -48.5q0 -16 -4 -33l-72 -340q-3 -16 -5 -28q-2 -12 -2 -23q0 -17 6 -29l-129 0q-2 3 -2.5 9.5q-0.5 6.5 -0.5 9.5q0 7 1 16.5q1 9.5 3 16.5q-25 -32 -54 -50q-29 -18 -79 -18q-51 0 -82 25.5q-31 25.5 -31 79.5q0 88 48 141.5q48 53.5 134 85.5q71 26 103.5 50q32.5 24 32.5 59q0 15 -10.5 24.5q-10.5 9.5 -39.5 9.5q-26 0 -50 -17.5q-24 -17.5 -31 -63.5zM307 722l-23 -109h-109l23 109zM484 722l-23 -109h-109l23 109z" />
<glyph unicode="&#229;" horiz-adv-x="477" d="M208 230q-32 -18 -47 -47q-15 -29 -15 -57q0 -21 9.5 -35q9.5 -14 32.5 -14q29 0 52.5 17.5q23.5 17.5 31.5 54.5l28 133zM78 378q6 43 26 77q20 34 50 57.5q30 23.5 67.5 35.5q37.5 12 77.5 12q35 0 65 -6q30 -6 51.5 -19q21.5 -13 34 -33.5q12.5 -20.5 12.5 -48.5q0 -16 -4 -33l-72 -340q-3 -16 -5 -28q-2 -12 -2 -23q0 -17 6 -29l-129 0q-2 3 -2.5 9.5q-0.5 6.5 -0.5 9.5q0 7 1 16.5q1 9.5 3 16.5q-25 -32 -54 -50q-29 -18 -79 -18q-51 0 -82 25.5q-31 25.5 -31 79.5q0 76 47 134.5q47 58.5 135 92.5q71 27 103.5 50.5q32.5 23.5 32.5 58.5q0 15 -10.5 24.5q-10.5 9.5 -39.5 9.5q-26 0 -50 -17.5q-24 -17.5 -31 -63.5zM353 776q19 0 33 -6.5q14 -6.5 23 -16.5q9 -10 13.5 -23q4.5 -13 4.5 -26q0 -25 -10.5 -46.5q-10.5 -21.5 -27 -37q-16.5 -15.5 -36.5 -24q-20 -8.5 -40 -8.5q-40 0 -58 23.5q-18 23.5 -18 52.5q0 20 9 40q9 20 25 36q16 16 37 26q21 10 45 10zt0 0zM342 724q-25 0 -38.5 -16.5q-13.5 -16.5 -13.5 -36.5q0 -14 7.5 -22.5q7.5 -8.5 26.5 -8.5q18 0 34 12.5q16 12.5 16 40.5q0 12 -7.5 21.5t-24.5 9.5z" />
<glyph unicode="&#230;" horiz-adv-x="719" d="M78 378q6 45 26.5 79q20.5 34 50.5 57q30 23 67 34.5q37 11.5 77 11.5q38 0 68.5 -7q30.5 -7 53.5 -22q27 15 59 22q32 7 67 7q70 0 113.5 -29q43.5 -29 43.5 -94q0 -23 -6 -50l-27 -127h-253q-8 -38 -13.5 -62.5q-5.5 -24.5 -8.5 -39.5q-3 -15 -4 -22q-1 -7 -1 -10q0 -45 54 -45q30 0 53.5 18.5q23.5 18.5 31.5 72.5l123 0q-9 -52 -30.5 -87.5q-21.5 -35.5 -51.5 -58q-30 -22.5 -67.5 -32.5q-37.5 -10 -78.5 -10q-57 0 -96.5 19q-39.5 19 -53.5 61q-33 -45 -70 -62.5q-37 -17.5 -81 -17.5q-51 0 -82 25.5q-31 25.5 -31 79.5q0 76 47 134.5q47 58.5 135 92.5q71 27 103.5 50.5q32.5 23.5 32.5 58.5q0 15 -10 26.5q-10 11.5 -39 11.5q-26 0 -49 -19.5q-23 -19.5 -33 -65.5zM568 350q6 28 9.5 46q3.5 18 3.5 22q0 22 -14 33.5q-14 11.5 -40 11.5q-30 0 -51 -15q-21 -15 -27 -45l-11 -53zM208 230q-32 -18 -47 -47q-15 -29 -15 -57q0 -18 10 -31.5q10 -13.5 33 -13.5q29 0 52 15.5q23 15.5 31 52.5l28 133z" />
<glyph unicode="&#231;" horiz-adv-x="437" d="M289 348q4 22 7 35.5q3 13.5 4.5 22q1.5 8.5 2 12.5q0.5 4 0.5 7q0 17 -10.5 25.5q-10.5 8.5 -27.5 8.5q-23 0 -40.5 -13.5q-17.5 -13.5 -23.5 -42.5l-56 -262q-2 -8 -2 -17q0 -20 11.5 -29.5q11.5 -9.5 30.5 -9.5q20 0 37 12q17 12 22 37l16 77h123l-18 -83q-6 -30 -22.5 -54.5q-16.5 -24.5 -40 -43q-23.5 -18.5 -53 -30q-29.5 -11.5 -61.5 -14.5l-5 -23q41 -2 56.5 -20.5q15.5 -18.5 15.5 -42.5q0 -20 -8 -39.5q-8 -19.5 -25 -35.5q-17 -16 -42.5 -26q-25.5 -10 -60.5 -10q-16 0 -37 2.5q-21 2.5 -35 5.5l13 60q13 -4 31 -6q18 -2 36 -2q23 0 34 12.5q11 12.5 11 27.5q0 10 -13.5 14q-13.5 4 -37.5 4l17 79q-70 0 -97.5 31.5q-27.5 31.5 -27.5 86.5q0 18 4 34l56 268q7 34 26.5 62.5q19.5 28.5 47.5 49q28 20.5 63.5 31.5q35.5 11 75.5 11q27 0 53 -7q26 -7 46 -21.5q20 -14.5 32.5 -36q12.5 -21.5 12.5 -50.5q0 -14 -3 -29l-15 -68z" />
<glyph unicode="&#232;" horiz-adv-x="466" d="M165 260l-25 -119q-2 -10 -2 -15q0 -45 54 -45q30 0 51 15.5q21 15.5 27 44.5l7 31h123q-9 -52 -30.5 -87.5q-21.5 -35.5 -51.5 -58q-30 -22.5 -67.5 -32.5q-37.5 -10 -78.5 -10q-70 0 -113.5 29q-43.5 29 -43.5 94q0 23 6 50l48 230q10 46 31 79q21 33 50.5 54q29.5 21 66 30.5q36.5 9.5 77.5 9.5q70 0 113.5 -29q43.5 -29 43.5 -94q0 -23 -6 -50l-27 -127zM315 350l11 53q2 10 2 15q0 22 -14 33.5q-14 11.5 -40 11.5q-30 0 -51 -15q-21 -15 -27 -45l-11 -53zM325 731l56 -136h-98l-116 136z" />
<glyph unicode="&#233;" horiz-adv-x="466" d="M165 260l-25 -119q-2 -10 -2 -15q0 -45 54 -45q30 0 51 15.5q21 15.5 27 44.5l7 31h123q-9 -52 -30.5 -87.5q-21.5 -35.5 -51.5 -58q-30 -22.5 -67.5 -32.5q-37.5 -10 -78.5 -10q-70 0 -113.5 29q-43.5 29 -43.5 94q0 23 6 50l48 230q10 46 31 79q21 33 50.5 54q29.5 21 66 30.5q36.5 9.5 77.5 9.5q70 0 113.5 -29q43.5 -29 43.5 -94q0 -23 -6 -50l-27 -127zM315 350l11 53q2 10 2 15q0 22 -14 33.5q-14 11.5 -40 11.5q-30 0 -51 -15q-21 -15 -27 -45l-11 -53zM525 731l-172 -136h-98l112 136z" />
<glyph unicode="&#234;" horiz-adv-x="466" d="M165 260l-25 -119q-2 -10 -2 -15q0 -45 54 -45q30 0 51 15.5q21 15.5 27 44.5l7 31h123q-9 -52 -30.5 -87.5q-21.5 -35.5 -51.5 -58q-30 -22.5 -67.5 -32.5q-37.5 -10 -78.5 -10q-70 0 -113.5 29q-43.5 29 -43.5 94q0 23 6 50l48 230q10 46 31 79q21 33 50.5 54q29.5 21 66 30.5q36.5 9.5 77.5 9.5q70 0 113.5 -29q43.5 -29 43.5 -94q0 -23 -6 -50l-27 -127zM315 350l11 53q2 10 2 15q0 22 -14 33.5q-14 11.5 -40 11.5q-30 0 -51 -15q-21 -15 -27 -45l-11 -53zM391 731l74 -136h-98l-50 72l-80 -72h-98l130 136z" />
<glyph unicode="&#235;" horiz-adv-x="466" d="M165 260l-25 -119q-2 -10 -2 -15q0 -45 54 -45q30 0 51 15.5q21 15.5 27 44.5l7 31h123q-9 -52 -30.5 -87.5q-21.5 -35.5 -51.5 -58q-30 -22.5 -67.5 -32.5q-37.5 -10 -78.5 -10q-70 0 -113.5 29q-43.5 29 -43.5 94q0 23 6 50l48 230q10 46 31 79q21 33 50.5 54q29.5 21 66 30.5q36.5 9.5 77.5 9.5q70 0 113.5 -29q43.5 -29 43.5 -94q0 -23 -6 -50l-27 -127zM315 350l11 53q2 10 2 15q0 22 -14 33.5q-14 11.5 -40 11.5q-30 0 -51 -15q-21 -15 -27 -45l-11 -53zM296 722l-23 -109h-109l23 109zM473 722l-23 -109h-109l23 109z" />
<glyph unicode="&#236;" horiz-adv-x="223" d="M233 595h-98l-115 136h158zM116 0h-123l116 546l123 0z" />
<glyph unicode="&#237;" horiz-adv-x="223" d="M397 731l-173 -136h-98l113 136zM116 0h-123l116 546l123 0z" />
<glyph unicode="&#238;" horiz-adv-x="223" d="M272 731l73 -136h-98l-50 72l-80 -72h-98l131 136zM116 0h-123l116 546l123 0z" />
<glyph unicode="&#239;" horiz-adv-x="223" d="M116 0h-123l116 546h123zM65 722h109l-23 -109h-109zM243 722h109l-23 -109l-109 0z" />
<glyph unicode="&#241;" horiz-adv-x="464" d="M222 501q9 10 21 20.5q12 10.5 27 19q15 8.5 32.5 14q17.5 5.5 36.5 5.5q47 0 78 -25q31 -25 31 -81q0 -11 -1 -22.5q-1 -11.5 -4 -25.5l-87 -406h-123l83 387q1 3 1.5 11.5q0.5 8.5 0.5 13.5q0 47 -48 47q-26 0 -45 -17.5q-19 -17.5 -26 -49.5l-84 -392h-123l116 546h123zM177 602q44 113 111 113q13 0 26.5 -4q13.5 -4 26.5 -8.5q13 -4.5 25.5 -8q12.5 -3.5 23.5 -3.5q30 0 45 38l43 0q-20 -57 -50.5 -86.5q-30.5 -29.5 -64.5 -29.5q-9 0 -22.5 3.5q-13.5 3.5 -27.5 8q-14 4.5 -26.5 8.5q-12.5 4 -18.5 4q-33 0 -48 -35z" />
<glyph unicode="&#242;" horiz-adv-x="477" d="M300 560q44 0 75 -10.5q31 -10.5 50.5 -27.5q19.5 -17 28 -40.5q8.5 -23.5 8.5 -48.5q0 -12 -2 -25q-2 -13 -5 -26l-46 -220q-8 -35 -24.5 -67.5q-16.5 -32.5 -44.5 -57q-28 -24.5 -68 -39q-40 -14.5 -94 -14.5q-45 0 -75.5 10q-30.5 10 -50 27q-19.5 17 -28 40.5q-8.5 23.5 -8.5 50.5q0 24 6 50l46 220q7 35 24 67.5q17 32.5 45 57q28 24.5 68 39q40 14.5 95 14.5zt0 0zM280 463q-29 0 -50.5 -13.5q-21.5 -13.5 -29.5 -51.5l-54 -252q-2 -10 -2 -20q0 -25 15 -35q15 -10 39 -10q30 0 50.5 13.5q20.5 13.5 28.5 51.5l54 252q3 15 3 23q0 24 -14.5 33q-14.5 9 -39.5 9zt0 0zM326 731l56 -136h-98l-116 136z" />
<glyph unicode="&#243;" horiz-adv-x="477" d="M300 560q44 0 75 -10.5q31 -10.5 50.5 -27.5q19.5 -17 28 -40.5q8.5 -23.5 8.5 -48.5q0 -12 -2 -25q-2 -13 -5 -26l-46 -220q-8 -35 -24.5 -67.5q-16.5 -32.5 -44.5 -57q-28 -24.5 -68 -39q-40 -14.5 -94 -14.5q-45 0 -75.5 10q-30.5 10 -50 27q-19.5 17 -28 40.5q-8.5 23.5 -8.5 50.5q0 24 6 50l46 220q7 35 24 67.5q17 32.5 45 57q28 24.5 68 39q40 14.5 95 14.5zt0 0zM280 463q-29 0 -50.5 -13.5q-21.5 -13.5 -29.5 -51.5l-54 -252q-2 -10 -2 -20q0 -25 15 -35q15 -10 39 -10q30 0 50.5 13.5q20.5 13.5 28.5 51.5l54 252q3 15 3 23q0 24 -14.5 33q-14.5 9 -39.5 9zt0 0zM526 731l-172 -136h-98l112 136z" />
<glyph unicode="&#244;" horiz-adv-x="477" d="M300 560q44 0 75 -10.5q31 -10.5 50.5 -27.5q19.5 -17 28 -40.5q8.5 -23.5 8.5 -48.5q0 -12 -2 -25q-2 -13 -5 -26l-46 -220q-8 -35 -24.5 -67.5q-16.5 -32.5 -44.5 -57q-28 -24.5 -68 -39q-40 -14.5 -94 -14.5q-45 0 -75.5 10q-30.5 10 -50 27q-19.5 17 -28 40.5q-8.5 23.5 -8.5 50.5q0 24 6 50l46 220q7 35 24 67.5q17 32.5 45 57q28 24.5 68 39q40 14.5 95 14.5zt0 0zM280 463q-29 0 -50.5 -13.5q-21.5 -13.5 -29.5 -51.5l-54 -252q-2 -10 -2 -20q0 -25 15 -35q15 -10 39 -10q30 0 50.5 13.5q20.5 13.5 28.5 51.5l54 252q3 15 3 23q0 24 -14.5 33q-14.5 9 -39.5 9zt0 0zM396 731l74 -136h-98l-50 72l-80 -72h-98l130 136z" />
<glyph unicode="&#245;" horiz-adv-x="477" d="M300 560q44 0 75 -10.5q31 -10.5 50.5 -27.5q19.5 -17 28 -40.5q8.5 -23.5 8.5 -48.5q0 -12 -2 -25q-2 -13 -5 -26l-46 -220q-8 -35 -24.5 -67.5q-16.5 -32.5 -44.5 -57q-28 -24.5 -68 -39q-40 -14.5 -94 -14.5q-45 0 -75.5 10q-30.5 10 -50 27q-19.5 17 -28 40.5q-8.5 23.5 -8.5 50.5q0 24 6 50l46 220q7 35 24 67.5q17 32.5 45 57q28 24.5 68 39q40 14.5 95 14.5zt0 0zM280 463q-29 0 -50.5 -13.5q-21.5 -13.5 -29.5 -51.5l-54 -252q-2 -10 -2 -20q0 -25 15 -35q15 -10 39 -10q30 0 50.5 13.5q20.5 13.5 28.5 51.5l54 252q3 15 3 23q0 24 -14.5 33q-14.5 9 -39.5 9zt0 0zM191 602q44 113 111 113q13 0 26.5 -4q13.5 -4 26.5 -8.5q13 -4.5 25.5 -8q12.5 -3.5 23.5 -3.5q30 0 45 38l43 0q-20 -57 -50.5 -86.5q-30.5 -29.5 -64.5 -29.5q-9 0 -22.5 3.5q-13.5 3.5 -27.5 8q-14 4.5 -26.5 8.5q-12.5 4 -18.5 4q-33 0 -48 -35z" />
<glyph unicode="&#246;" horiz-adv-x="477" d="M300 560q44 0 75 -10.5q31 -10.5 50.5 -27.5q19.5 -17 28 -40.5q8.5 -23.5 8.5 -48.5q0 -12 -2 -25q-2 -13 -5 -26l-46 -220q-8 -35 -24.5 -67.5q-16.5 -32.5 -44.5 -57q-28 -24.5 -68 -39q-40 -14.5 -94 -14.5q-45 0 -75.5 10q-30.5 10 -50 27q-19.5 17 -28 40.5q-8.5 23.5 -8.5 50.5q0 24 6 50l46 220q7 35 24 67.5q17 32.5 45 57q28 24.5 68 39q40 14.5 95 14.5zt0 0zM280 463q-29 0 -50.5 -13.5q-21.5 -13.5 -29.5 -51.5l-54 -252q-2 -10 -2 -20q0 -25 15 -35q15 -10 39 -10q30 0 50.5 13.5q20.5 13.5 28.5 51.5l54 252q3 15 3 23q0 24 -14.5 33q-14.5 9 -39.5 9zt0 0zM299 722l-23 -109h-109l23 109zM476 722l-23 -109h-109l23 109z" />
<glyph unicode="&#247;" horiz-adv-x="487" d="M461 300l-18 -88h-424l18 88zM243 512h109l-23 -109h-109zM158 109h109l-23 -109l-109 0z" />
<glyph unicode="&#248;" horiz-adv-x="477" d="M521 570l-71 -82q12 -26 12 -55q0 -12 -2 -25q-2 -13 -5 -26l-46 -220q-8 -35 -24.5 -67.5q-16.5 -32.5 -44.5 -57q-28 -24.5 -68 -39q-40 -14.5 -94 -14.5q-48 0 -79.5 11q-31.5 11 -50.5 30l-73 -83l-32 33l80 92q-7 20 -7 45q0 24 6 50l46 220q7 35 24 67.5q17 32.5 45 57q28 24.5 68 39q40 14.5 95 14.5q43 0 72.5 -9.5q29.5 -9.5 49.5 -26.5l66 76zM334 423q0 22 -15 31q-15 9 -39 9q-29 0 -50.5 -13.5q-21.5 -13.5 -29.5 -51.5l-36 -170zM144 136v-10q0 -25 15 -35q15 -10 39 -10q30 0 50.5 13.5q20.5 13.5 28.5 51.5l41 190z" />
<glyph unicode="&#249;" horiz-adv-x="468" d="M235 546l-84 -394q-2 -10 -2 -22q0 -45 47 -45q30 0 48 17q18 17 25 49l84 395h123l-116 -546h-117l12 56q-26 -35 -56.5 -53.5q-30.5 -18.5 -70.5 -18.5q-47 0 -78 25.5q-31 25.5 -31 81.5q0 22 6 49l87 406zM317 731l56 -136h-98l-116 136z" />
<glyph unicode="&#250;" horiz-adv-x="468" d="M235 546l-84 -394q-2 -10 -2 -22q0 -45 47 -45q30 0 48 17q18 17 25 49l84 395h123l-116 -546h-117l12 56q-26 -35 -56.5 -53.5q-30.5 -18.5 -70.5 -18.5q-47 0 -78 25.5q-31 25.5 -31 81.5q0 22 6 49l87 406zM521 731l-172 -136h-98l112 136z" />
<glyph unicode="&#251;" horiz-adv-x="468" d="M235 546l-84 -394q-2 -10 -2 -22q0 -45 47 -45q30 0 48 17q18 17 25 49l84 395h123l-116 -546h-117l12 56q-26 -35 -56.5 -53.5q-30.5 -18.5 -70.5 -18.5q-47 0 -78 25.5q-31 25.5 -31 81.5q0 22 6 49l87 406zM395 731l74 -136h-98l-50 72l-80 -72h-98l130 136z" />
<glyph unicode="&#252;" horiz-adv-x="468" d="M235 546l-84 -394q-2 -10 -2 -22q0 -45 47 -45q30 0 48 17q18 17 25 49l84 395h123l-116 -546h-117l12 56q-26 -35 -56.5 -53.5q-30.5 -18.5 -70.5 -18.5q-47 0 -78 25.5q-31 25.5 -31 81.5q0 22 6 49l87 406zM297 722l-23 -109h-109l23 109zM474 722l-23 -109h-109l23 109z" />
<glyph unicode="&#253;" horiz-adv-x="434" d="M208 546l-16 -419h2l159 419h129l-275 -615q-15 -34 -31 -56q-16 -22 -34 -34.5q-18 -12.5 -39.5 -17.5q-21.5 -5 -49.5 -5q-18 0 -33 1q-15 1 -32 3l20 93h45q14 0 24.5 12.5q10.5 12.5 10.5 29.5q0 6 -0.5 33q-0.5 27 -2.5 92q-2 65 -5 176.5q-3 111.5 -9 287.5zM506 731l-172 -136h-98l112 136z" />
<glyph unicode="&#254;" horiz-adv-x="466" d="M291 459q-23 0 -45 -16q-22 -16 -30 -50l-52 -246q-2 -10 -2 -17q0 -25 14.5 -37q14.5 -12 34.5 -12q24 0 45 16q21 16 28 48l53 250q2 10 2 19q0 23 -14 34q-14 11 -34 11zt0 0zM286 722l-51 -237h1q23 38 56 56.5q33 18.5 65 18.5q24 0 44.5 -6q20.5 -6 36.5 -19q16 -13 25 -33.5q9 -20.5 9 -48.5q0 -24 -5 -46l-57 -269q-8 -39 -26 -68q-18 -29 -42 -48q-24 -19 -52 -28.5q-28 -9.5 -56 -9.5q-72 0 -89 74l-51 -240h-123l192 904z" />
<glyph unicode="&#255;" horiz-adv-x="434" d="M208 546l-16 -419h2l159 419h129l-275 -615q-15 -34 -31 -56q-16 -22 -34 -34.5q-18 -12.5 -39.5 -17.5q-21.5 -5 -49.5 -5q-18 0 -33 1q-15 1 -32 3l20 93h45q14 0 24.5 12.5q10.5 12.5 10.5 29.5q0 6 -0.5 33q-0.5 27 -2.5 92q-2 65 -5 176.5q-3 111.5 -9 287.5zM289 722l-23 -109h-109l23 109zM466 722l-23 -109h-109l23 109z" />
<glyph unicode="&#338;" horiz-adv-x="794" d="M854 722l-24 -110h-249l-35 -168h227l-24 -110h-227l-47 -224h249l-24 -110h-367q-50 -17 -114 -17q-43 0 -78.5 8.5q-35.5 8.5 -61 27.5q-25.5 19 -39.5 50q-14 31 -14 76q0 9 0.5 17.5q0.5 8.5 2.5 22.5q2 14 6.5 35.5q4.5 21.5 11.5 56.5q7 35 18 86.5q11 51.5 26 124.5q14 68 41.5 115q27.5 47 65 76.5q37.5 29.5 84 42.5q46.5 13 97.5 13q55 0 94 -13zM356 625q-49 0 -79 -31.5q-30 -31.5 -42 -89.5q-17 -78 -28 -131.5q-11 -53.5 -19 -89.5q-8 -36 -12 -57q-4 -21 -6 -32.5q-2 -11.5 -2.5 -17q-0.5 -5.5 -0.5 -10.5q0 -73 75 -73q45 0 75 29.5q30 29.5 42 86.5q25 116 38.5 180.5q13.5 64.5 20 96.5q6.5 32 7.5 42.5q1 10.5 1 18.5q0 37 -17.5 57.5t-52.5 20.5z" />
<glyph unicode="&#339;" horiz-adv-x="725" d="M300 560q81 0 120 -33q29 17 62 25q33 8 71 8q70 0 113.5 -29q43.5 -29 43.5 -94q0 -23 -6 -50l-27 -127h-253q-8 -38 -13.5 -62.5q-5.5 -24.5 -8.5 -39.5q-3 -15 -4 -22q-1 -7 -1 -10q0 -45 54 -45q30 0 53.5 18.5q23.5 18.5 31.5 72.5l123 0q-9 -52 -30.5 -87.5q-21.5 -35.5 -51.5 -58q-30 -22.5 -67.5 -32.5q-37.5 -10 -78.5 -10q-38 0 -68 8q-30 8 -51 25q-26 -16 -59 -24.5q-33 -8.5 -75 -8.5q-45 0 -75.5 10q-30.5 10 -50 27q-19.5 17 -28 40.5q-8.5 23.5 -8.5 50.5q0 24 6 50l46 220q7 35 24 67.5q17 32.5 45 57q28 24.5 68 39q40 14.5 95 14.5zt0 0zM574 350q6 28 9.5 46q3.5 18 3.5 22q0 22 -14 33.5q-14 11.5 -40 11.5q-30 0 -51 -15q-21 -15 -27 -45l-11 -53zM280 463q-29 0 -50.5 -13.5q-21.5 -13.5 -29.5 -51.5l-54 -252q-2 -10 -2 -20q0 -25 15 -35q15 -10 39 -10q30 0 50.5 13.5q20.5 13.5 28.5 51.5l54 252q3 15 3 23q0 24 -14.5 33t-39.5 9z" />
<glyph unicode="&#352;" horiz-adv-x="523" d="M388 494q4 21 5.5 35q1.5 14 1.5 25q0 38 -16.5 54.5q-16.5 16.5 -48.5 16.5q-38 0 -63.5 -22.5q-25.5 -22.5 -25.5 -64.5q0 -20 8.5 -32.5q8.5 -12.5 22.5 -23.5l120 -93q40 -31 63.5 -62.5q23.5 -31.5 23.5 -82.5q0 -59 -20 -107.5q-20 -48.5 -56 -82.5q-36 -34 -86 -52.5q-50 -18.5 -110 -18.5q-96 0 -142.5 43.5q-46.5 43.5 -46.5 122.5q0 17 3 38q3 21 11 61l131 0q-8 -35 -10 -50q-2 -15 -2 -26q0 -23 6.5 -38.5q6.5 -15.5 17 -24.5q10.5 -9 25 -12.5q14.5 -3.5 30.5 -3.5q23 0 41.5 8.5q18.5 8.5 32 23q13.5 14.5 21 33.5q7.5 19 7.5 40q0 26 -14 45q-14 19 -41 39l-105 80q-74 56 -74 140q0 55 21 98q21 43 56.5 73q35.5 30 82 46q46.5 16 98.5 16q86 0 130.5 -38q44.5 -38 44.5 -113q0 -16 -2.5 -35.5q-2.5 -19.5 -9.5 -54.5zM326 944l59 -97l99 97h100l-146 -164h-136l-76 164z" />
<glyph unicode="&#353;" horiz-adv-x="445" d="M140 176q-5 -23 -7 -32.5q-2 -9.5 -2 -17.5q0 -24 13.5 -34.5q13.5 -10.5 35.5 -10.5q30 0 52 17.5q22 17.5 22 45.5q0 16 -9 31q-9 15 -33 33l-87 64q-25 18 -40.5 43q-15.5 25 -15.5 61q0 45 18 79q18 34 47 57.5q29 23.5 67 35.5q38 12 79 12q68 0 107.5 -32.5q39.5 -32.5 39.5 -94.5q0 -11 -1 -23.5q-1 -12.5 -6 -33.5l-120 0q4 17 5 24.5q1 7.5 1 12.5q0 50 -46 50q-26 0 -45.5 -15.5q-19.5 -15.5 -19.5 -45.5q0 -8 5.5 -19.5q5.5 -11.5 28.5 -28.5l75 -54q14 -10 27.5 -22.5q13.5 -12.5 24 -28.5q10.5 -16 17 -35.5q6.5 -19.5 6.5 -43.5q0 -26 -8 -58.5q-8 -32.5 -32 -61q-24 -28.5 -68 -47.5q-44 -19 -116 -19q-31 0 -57.5 8q-26.5 8 -46 24q-19.5 16 -30.5 39.5q-11 23.5 -11 55.5q0 10 1.5 23q1.5 13 8.5 42zM234 595l-74 136h98l50 -72l80 72h98l-130 -136z" />
<glyph unicode="&#376;" horiz-adv-x="543" d="M269 722l37 -278l168 278h155l-283 -412l-66 -310h-137l66 310l-102 412zM367 893l-23 -109h-109l23 109zM551 893l-23 -109h-109l23 109z" />
<glyph unicode="&#402;" horiz-adv-x="500" d="M-47 -69q17 -10 45 -10q27 0 45 22.5q18 22.5 35 67.5l148 389h-114l20 97h125q46 133 105 196.5q59 63.5 146 63.5q38 0 76 -18l-42 -101q-8 7 -18 9.5q-10 2.5 -22 2.5q-39 0 -63.5 -36q-24.5 -36 -50.5 -117l110 0l-20 -97h-121l-128 -340q-48 -130 -101.5 -189.5q-53.5 -59.5 -127.5 -59.5q-21 0 -42 2.5q-21 2.5 -41 9.5z" />
<glyph unicode="&#732;" horiz-adv-x="477" d="M108 602q44 113 111 113q13 0 26.5 -4q13.5 -4 26.5 -8.5q13 -4.5 25.5 -8q12.5 -3.5 23.5 -3.5q28 0 45 38l43 0q-21 -57 -51.5 -86.5q-30.5 -29.5 -64.5 -29.5q-9 0 -22.5 3.5q-13.5 3.5 -27.5 8q-14 4.5 -26.5 8.5q-12.5 4 -18.5 4q-33 0 -47 -35z" />
<glyph unicode="&#1025;" horiz-adv-x="472" d="M532 722l-24 -110h-249l-35 -168h227l-24 -110h-227l-47 -224h249l-24 -110h-386l154 722zM233 893h109l-23 -109h-109zM417 893h109l-23 -109l-109 0z" />
<glyph unicode="&#1026;" horiz-adv-x="684" d="M360 434q20 4 54.5 7q34.5 3 72.5 3q35 0 61.5 -13.5q26.5 -13.5 44.5 -36q18 -22.5 27.5 -51q9.5 -28.5 9.5 -59.5q0 -25 -6 -56q-6 -31 -18 -62.5q-12 -31.5 -30.5 -61q-18.5 -29.5 -43.5 -53q-25 -23.5 -57 -37.5q-32 -14 -71 -14h-68l22 103h20q31 0 52 16.5q21 16.5 33.5 40q12.5 23.5 18 50.5q5.5 27 5.5 48q0 35 -15 55.5q-15 20.5 -45 20.5q-27 0 -52.5 -2.5q-25.5 -2.5 -37.5 -5.5l-70 -326h-137l130 612h-170l24 110h477l-24 -110l-170 0z" />
<glyph unicode="&#1027;" horiz-adv-x="450" d="M525 722l-24 -110h-241l-131 -612h-137l154 722zM565 955l-198 -180h-87l149 180z" />
<glyph unicode="&#1028;" horiz-adv-x="531" d="M399 503q3 16 5 29.5q2 13.5 2 25.5q0 32 -14.5 49.5q-14.5 17.5 -49.5 17.5q-25 0 -42.5 -8.5q-17.5 -8.5 -30 -24.5q-12.5 -16 -20.5 -38.5q-8 -22.5 -14 -50.5l-13 -59h115l-23 -110h-115l-27 -126q-2 -12 -3.5 -23q-1.5 -11 -1.5 -21q0 -34 15 -52.5q15 -18.5 46 -18.5q49 0 72.5 29q23.5 29 34.5 82l11 50h137l-8 -35q-26 -126 -92 -181q-66 -55 -178 -55q-88 0 -133.5 38q-45.5 38 -45.5 120q0 40 10 84l65 308q9 44 30.5 81q21.5 37 54.5 64q33 27 78 42q45 15 101 15q93 0 138 -41q45 -41 45 -110q0 -24 -6 -51l-6 -30z" />
<glyph unicode="&#1029;" horiz-adv-x="523" d="M388 494q4 21 5.5 35q1.5 14 1.5 25q0 38 -16.5 54.5q-16.5 16.5 -48.5 16.5q-38 0 -63.5 -22.5q-25.5 -22.5 -25.5 -64.5q0 -20 8.5 -32.5q8.5 -12.5 22.5 -23.5l120 -93q40 -31 63.5 -62.5q23.5 -31.5 23.5 -82.5q0 -59 -20 -107.5q-20 -48.5 -56 -82.5q-36 -34 -86 -52.5q-50 -18.5 -110 -18.5q-96 0 -142.5 43.5q-46.5 43.5 -46.5 122.5q0 17 3 38q3 21 11 61l131 0q-8 -35 -10 -50q-2 -15 -2 -26q0 -23 6.5 -38.5q6.5 -15.5 17 -24.5q10.5 -9 25 -12.5q14.5 -3.5 30.5 -3.5q23 0 41.5 8.5q18.5 8.5 32 23q13.5 14.5 21 33.5q7.5 19 7.5 40q0 26 -14 45q-14 19 -41 39l-105 80q-74 56 -74 140q0 55 21 98q21 43 56.5 73q35.5 30 82 46q46.5 16 98.5 16q86 0 130.5 -38q44.5 -38 44.5 -113q0 -16 -2.5 -35.5q-2.5 -19.5 -9.5 -54.5z" />
<glyph unicode="&#1030;" horiz-adv-x="237" d="M129 0h-137l154 722l137 0z" />
<glyph unicode="&#1031;" horiz-adv-x="237" d="M129 0h-137l154 722h137zM104 893h109l-23 -109h-109zM288 893h109l-23 -109l-109 0z" />
<glyph unicode="&#1032;" horiz-adv-x="451" d="M499 722l-121 -567q-17 -80 -76 -126q-59 -46 -150 -46q-75 0 -113.5 28q-38.5 28 -38.5 93q0 7 0.5 15.5q0.5 8.5 3 22.5q2.5 14 6.5 34.5q4 20.5 11 51.5l134 0q-7 -31 -10.5 -48.5q-3.5 -17.5 -5.5 -27.5q-2 -10 -2.5 -13.5q-0.5 -3.5 -0.5 -6.5q0 -23 11.5 -31q11.5 -8 27.5 -8q23 0 41.5 16q18.5 16 26.5 54l119 559z" />
<glyph unicode="&#1033;" horiz-adv-x="879" d="M636 722l-58 -278h115q35 0 62 -13.5q27 -13.5 45 -36q18 -22.5 27 -52.5q9 -30 9 -62q0 -23 -5.5 -52.5q-5.5 -29.5 -17.5 -61q-12 -31.5 -30 -61q-18 -29.5 -43 -53q-25 -23.5 -57.5 -38q-32.5 -14.5 -72.5 -14.5h-264l130 612h-146l-59 -277q-19 -90 -41 -156q-22 -66 -49.5 -108.5q-27.5 -42.5 -61.5 -63q-34 -20.5 -77 -20.5q-24 0 -43.5 2q-19.5 2 -37.5 7l21 101q7 -2 19 -3.5q12 -1.5 24 -1.5q16 0 28.5 7.5q12.5 7.5 26 36q13.5 28.5 29 85.5q15.5 57 36.5 155l73 346zM505 103h79q25 0 42.5 10q17.5 10 29.5 25.5q12 15.5 19.5 34q7.5 18.5 11.5 36q4 17.5 5 31q1 13.5 1 19.5q0 35 -15 55q-15 20 -45 20l-79 0z" />
<glyph unicode="&#1034;" horiz-adv-x="849" d="M224 444h181l59 278h137l-59 -278h115q35 0 62 -13.5q27 -13.5 45 -36q18 -22.5 27 -52.5q9 -30 9 -62q0 -23 -5.5 -52.5q-5.5 -29.5 -17.5 -61q-12 -31.5 -30 -61q-18 -29.5 -43 -53q-25 -23.5 -57.5 -38q-32.5 -14.5 -72.5 -14.5h-264l71 334h-181l-71 -334h-137l154 722h137zM469 103h79q25 0 42.5 10q17.5 10 29.5 25.5q12 15.5 19.5 34q7.5 18.5 11.5 36q4 17.5 5 31q1 13.5 1 19.5q0 35 -15 55q-15 20 -45 20l-79 0z" />
<glyph unicode="&#1035;" horiz-adv-x="684" d="M360 434q17 5 49 7.5q32 2.5 64 2.5q73 0 117 -37q44 -37 44 -109q0 -14 -2.5 -31.5q-2.5 -17.5 -4.5 -28.5l-51 -238h-137l48 226q4 17 4 35q0 73 -84 73q-6 0 -15 -0.5q-9 -0.5 -19 -1.5q-10 -1 -20 -2.5q-10 -1.5 -16 -2.5l-70 -327h-137l130 612h-170l24 110h477l-24 -110l-170 0z" />
<glyph unicode="&#1036;" horiz-adv-x="536" d="M216 409l233 313h155l-250 -313l102 -409h-153l-59 288l-69 -71l-46 -217h-137l154 722h137zM603 955l-198 -180h-87l149 180z" />
<glyph unicode="&#1038;" horiz-adv-x="542" d="M260 722l29 -383l193 383h150l-320 -584q-24 -43 -45.5 -72.5q-21.5 -29.5 -43.5 -48q-22 -18.5 -44.5 -26.5q-22.5 -8 -47.5 -8q-24 0 -44 3.5q-20 3.5 -37 9.5l23 105q5 -2 13.5 -5q8.5 -3 22.5 -3q20 0 38 13.5q18 13.5 35 44.5l-76 571zM360 918q-3 -14 -3 -25q0 -28 15.5 -42.5q15.5 -14.5 42.5 -14.5q33 0 57 20.5q24 20.5 32 61.5l71 0q-6 -29 -18 -56q-12 -27 -32.5 -48q-20.5 -21 -51.5 -33.5q-31 -12.5 -74 -12.5q-33 0 -55 8q-22 8 -35.5 21.5q-13.5 13.5 -19 32.5q-5.5 19 -5.5 40q0 20 5 48z" />
<glyph unicode="&#1039;" horiz-adv-x="555" d="M143 110h199l130 612h128l-153 -722h-166l-31 -146h-123l31 146h-166l153 722l128 0z" />
<glyph unicode="&#1040;" horiz-adv-x="539" d="M284 722h184l6 -722h-148l6 188h-155l-83 -188h-147zM338 295l16 336h-5l-132 -336z" />
<glyph unicode="&#1041;" horiz-adv-x="531" d="M151 103h79q25 0 42.5 10q17.5 10 29.5 25.5q12 15.5 19.5 34q7.5 18.5 11.5 36q4 17.5 5 31q1 13.5 1 19.5q0 35 -15 55q-15 20 -45 20h-79zM529 722l-22 -103h-246l-37 -175h115q35 0 62 -13.5q27 -13.5 45 -36q18 -22.5 27 -52.5q9 -30 9 -62q0 -23 -5.5 -52.5q-5.5 -29.5 -17.5 -61q-12 -31.5 -30 -61q-18 -29.5 -43 -53q-25 -23.5 -57.5 -38q-32.5 -14.5 -72.5 -14.5h-264l154 722z" />
<glyph unicode="&#1042;" horiz-adv-x="527" d="M220 429h72q52 0 81 37q29 37 29 97q0 28 -15.5 42q-15.5 14 -51.5 14h-74zM151 103h88q42 0 73.5 39.5q31.5 39.5 31.5 117.5q0 32 -14 49q-14 17 -43 17h-88zM146 722h253q39 0 67 -10q28 -10 45 -27.5q17 -17.5 25 -40.5q8 -23 8 -50q0 -30 -10 -64q-10 -34 -27.5 -63.5q-17.5 -29.5 -42.5 -51q-25 -21.5 -55 -27.5q38 -17 57.5 -44.5q19.5 -27.5 19.5 -72.5q0 -56 -17 -105q-17 -49 -47 -86q-30 -37 -69.5 -58.5q-39.5 -21.5 -84.5 -21.5l-276 0z" />
<glyph unicode="&#1043;" horiz-adv-x="450" d="M525 722l-24 -110h-242l-130 -612h-137l154 722z" />
<glyph unicode="&#1044;" horiz-adv-x="623" d="M660 722l-130 -612h44l-54 -255h-132l31 145h-299l-31 -145h-132l54 255h43q27 40 47.5 77.5q20.5 37.5 37.5 81.5q17 44 32 98.5q15 54.5 31 129.5l48 225zM362 612l-35 -164q-13 -62 -27.5 -110q-14.5 -48 -31 -87.5q-16.5 -39.5 -36 -73q-19.5 -33.5 -42.5 -67.5l203 0l107 502z" />
<glyph unicode="&#1045;" horiz-adv-x="472" d="M532 722l-24 -110h-249l-35 -168h227l-24 -110h-227l-47 -224h249l-24 -110h-386l154 722z" />
<glyph unicode="&#1046;" horiz-adv-x="816" d="M267 722l99 -313l67 313h137l-67 -313l233 313h155l-250 -313l102 -409h-153l-59 288l-69 -71l-46 -217h-137l46 217l-39 71l-181 -288h-153l276 409l-116 313z" />
<glyph unicode="&#1047;" horiz-adv-x="526" d="M92 514q10 47 33 87.5q23 40.5 57 70q34 29.5 77.5 46.5q43.5 17 94.5 17q32 0 64.5 -7q32.5 -7 58 -24q25.5 -17 41.5 -44.5q16 -27.5 16 -68.5q0 -35 -11 -68.5q-11 -33.5 -31 -61q-20 -27.5 -47.5 -48q-27.5 -20.5 -59.5 -27.5q41 -11 64.5 -41q23.5 -30 23.5 -84q0 -40 -13 -88.5q-13 -48.5 -44.5 -90.5q-31.5 -42 -84.5 -70.5q-53 -28.5 -133 -28.5q-38 0 -73 8q-35 8 -61 26.5q-26 18.5 -41.5 47.5q-15.5 29 -15.5 71q0 26 6 56l133 0q-2 -12 -3 -20q-1 -8 -1 -13q0 -28 15 -47q15 -19 56 -19q40 0 64 21q24 21 36.5 48q12.5 27 16.5 53.5q4 26.5 4 37.5q0 42 -22.5 59q-22.5 17 -57.5 17h-29l22 103h29q22 0 42.5 8q20.5 8 36.5 24q16 16 25 39.5q9 23.5 9 55.5q0 26 -12.5 46q-12.5 20 -45.5 20q-41 0 -68 -31q-27 -31 -38 -80z" />
<glyph unicode="&#1048;" horiz-adv-x="560" d="M274 722l-58 -270q-7 -32 -15 -67.5q-8 -35.5 -17.5 -69.5q-9.5 -34 -19 -65q-9.5 -31 -19.5 -53l1 0l312 525h148l-154 -722h-128l58 273q18 83 34 142.5q16 59.5 37 108.5l-1 0l-312 -524h-148l154 722z" />
<glyph unicode="&#1049;" horiz-adv-x="560" d="M274 722l-58 -271q-7 -32 -15 -67.5q-8 -35.5 -17.5 -69.5q-9.5 -34 -19 -64.5q-9.5 -30.5 -19.5 -52.5l1 0l312 525h148l-154 -722h-128l59 274q17 83 33 142q16 59 37 108l-1 0l-312 -524h-148l154 722zM341 918q-3 -15 -3 -27q0 -27 15 -41q15 -14 42 -14q33 0 57 20.5q24 20.5 33 61.5l71 0q-6 -29 -18.5 -56q-12.5 -27 -33 -48q-20.5 -21 -51.5 -33.5q-31 -12.5 -74 -12.5q-33 0 -55 7.5q-22 7.5 -35.5 21q-13.5 13.5 -19 32q-5.5 18.5 -5.5 39.5q0 24 6 50z" />
<glyph unicode="&#1050;" horiz-adv-x="536" d="M216 409l233 313h155l-250 -313l102 -409h-153l-59 288l-69 -71l-46 -217h-137l154 722l137 0z" />
<glyph unicode="&#1051;" horiz-adv-x="591" d="M637 722l-154 -722h-137l130 612h-146l-59 -277q-19 -90 -41 -156q-22 -66 -49.5 -108.5q-27.5 -42.5 -61.5 -63q-34 -20.5 -77 -20.5q-24 0 -43.5 2q-19.5 2 -37.5 7l21 101q7 -2 19 -3.5q12 -1.5 24 -1.5q16 0 28.5 7.5q12.5 7.5 26 36q13.5 28.5 29 85.5q15.5 57 36.5 155l73 346z" />
<glyph unicode="&#1052;" horiz-adv-x="730" d="M363 722v-465l194 465h219l-154 -722h-128l139 654h-1l-276 -654h-97v653h-1l-138 -653h-128l154 722z" />
<glyph unicode="&#1053;" horiz-adv-x="555" d="M224 444h181l59 278h137l-154 -722h-137l71 334h-181l-71 -334h-137l154 722l137 0z" />
<glyph unicode="&#1054;" horiz-adv-x="557" d="M379 735q43 0 78 -8.5q35 -8.5 59.5 -27.5q24.5 -19 38 -49.5q13.5 -30.5 13.5 -75.5q0 -9 -0.5 -18q-0.5 -9 -2.5 -23q-2 -14 -6 -36q-4 -22 -11.5 -58q-7.5 -36 -18.5 -88q-11 -52 -26 -125q-15 -69 -41.5 -115.5q-26.5 -46.5 -63 -75q-36.5 -28.5 -82 -40.5q-45.5 -12 -97.5 -12q-43 0 -78.5 8.5q-35.5 8.5 -61 27.5q-25.5 19 -39.5 50q-14 31 -14 76q0 9 0.5 17.5q0.5 8.5 2.5 22.5q2 14 6.5 35.5q4.5 21.5 11.5 56.5q7 35 18 86.5q11 51.5 26 124.5q14 68 41.5 115q27.5 47 65 76.5q37.5 29.5 84 42.5q46.5 13 97.5 13zt0 0zM356 625q-49 0 -79 -31.5q-30 -31.5 -42 -89.5q-17 -78 -28 -131.5q-11 -53.5 -19 -89.5q-8 -36 -12 -57q-4 -21 -6 -32.5q-2 -11.5 -2.5 -17q-0.5 -5.5 -0.5 -10.5q0 -73 75 -73q45 0 75 29.5q30 29.5 42 86.5q25 116 38.5 180.5q13.5 64.5 20 96.5q6.5 32 7.5 42.5q1 10.5 1 18.5q0 37 -17.5 57.5t-52.5 20.5z" />
<glyph unicode="&#1055;" horiz-adv-x="555" d="M601 722l-154 -722h-137l130 612h-181l-130 -612h-137l154 722z" />
<glyph unicode="&#1056;" horiz-adv-x="544" d="M129 0h-137l154 722h259q37 0 65 -11.5q28 -11.5 47 -32.5q19 -21 29 -49.5q10 -28.5 10 -62.5q0 -53 -19.5 -102q-19.5 -49 -52.5 -87q-33 -38 -77.5 -60.5q-44.5 -22.5 -94.5 -22.5h-120zM215 401h69q58 0 93.5 38q35.5 38 35.5 104q0 35 -21 53.5q-21 18.5 -63 18.5l-69 0z" />
<glyph unicode="&#1057;" horiz-adv-x="531" d="M396 487q7 30 9.5 47q2.5 17 2.5 29q0 34 -15.5 48q-15.5 14 -47.5 14q-44 0 -69 -26.5q-25 -26.5 -40 -95.5q-22 -102 -35.5 -165q-13.5 -63 -21 -100.5q-7.5 -37.5 -10 -55q-2.5 -17.5 -2.5 -26.5q0 -35 15.5 -49q15.5 -14 47.5 -14q21 0 38.5 7q17.5 7 32.5 25q15 18 26.5 50q11.5 32 19.5 82l137 0q-11 -62 -31 -112.5q-20 -50.5 -53 -86.5q-33 -36 -80.5 -55.5q-47.5 -19.5 -111.5 -19.5q-52 0 -87 12q-35 12 -56 33q-21 21 -30 49.5q-9 28.5 -9 62.5q0 13 1.5 28q1.5 15 8 49.5q6.5 34.5 20 97q13.5 62.5 36.5 172.5q27 128 96.5 188q69.5 60 181.5 60q88 0 133 -40q45 -40 45 -112q0 -14 -2.5 -33.5q-2.5 -19.5 -12.5 -62.5z" />
<glyph unicode="&#1058;" horiz-adv-x="513" d="M267 0h-137l130 612h-170l24 110h477l-24 -110l-170 0z" />
<glyph unicode="&#1059;" horiz-adv-x="542" d="M260 722l29 -383l193 383h150l-320 -584q-24 -43 -45.5 -72.5q-21.5 -29.5 -43.5 -48q-22 -18.5 -44.5 -26.5q-22.5 -8 -47.5 -8q-24 0 -44 3.5q-20 3.5 -37 9.5l23 105q5 -2 13.5 -5q8.5 -3 22.5 -3q20 0 38 13.5q18 13.5 35 44.5l-76 571z" />
<glyph unicode="&#1060;" horiz-adv-x="755" d="M540 722l-18 -82h40q37 0 71 -12q34 -12 59.5 -36q25.5 -24 40.5 -61q15 -37 15 -87q0 -68 -21.5 -132q-21.5 -64 -61.5 -113.5q-40 -49.5 -95.5 -79.5q-55.5 -30 -124.5 -30h-40l-19 -89h-137l19 89h-40q-38 0 -71.5 11q-33.5 11 -59.5 34.5q-26 23.5 -41 59.5q-15 36 -15 87q0 69 23 133.5q23 64.5 63.5 115q40.5 50.5 96 80.5q55.5 30 121.5 30h40l18 82zM363 533h-32q-38 0 -66 -26q-28 -26 -46.5 -63q-18.5 -37 -27.5 -78q-9 -41 -9 -72q0 -48 19.5 -73q19.5 -25 57.5 -25h32zM428 196h32q42 0 70.5 27.5q28.5 27.5 45.5 65.5q17 38 24 77.5q7 39.5 7 63.5q0 48 -19 75.5q-19 27.5 -56 27.5l-32 0z" />
<glyph unicode="&#1061;" horiz-adv-x="549" d="M277 722l43 -235l148 235h154l-253 -351l105 -371h-153l-48 266l-166 -266h-150l253 371l-92 351z" />
<glyph unicode="&#1062;" horiz-adv-x="577" d="M153 110h181l130 612h137l-130 -612h44l-54 -256h-128l31 146h-372l154 722l137 0z" />
<glyph unicode="&#1063;" horiz-adv-x="554" d="M283 722l-42 -197q-4 -17 -4 -35q0 -73 84 -73q15 0 37 2q22 2 33 5l64 298h137l-154 -722h-137l68 317q-31 -6 -57.5 -8q-26.5 -2 -60.5 -2q-75 0 -116 40q-41 40 -41 108q0 25 6 52l46 215z" />
<glyph unicode="&#1064;" horiz-adv-x="807" d="M-8 0l154 722h137l-130 -612h148l130 612h137l-130 -612h148l130 612h137l-154 -722z" />
<glyph unicode="&#1065;" horiz-adv-x="822" d="M153 110h148l130 612h137l-130 -612h148l130 612h137l-130 -612h44l-54 -255h-128l31 145h-624l154 722l137 0z" />
<glyph unicode="&#1066;" horiz-adv-x="597" d="M217 103h79q25 0 42.5 10q17.5 10 29.5 25.5q12 15.5 19.5 34q7.5 18.5 11.5 36q4 17.5 5 31q1 13.5 1 19.5q0 35 -15 55q-15 20 -45 20h-79zM349 722l-59 -278h115q35 0 62 -13.5q27 -13.5 45 -36q18 -22.5 27 -52.5q9 -30 9 -62q0 -23 -5.5 -52.5q-5.5 -29.5 -17.5 -61q-12 -31.5 -30 -61q-18 -29.5 -43 -53q-25 -23.5 -57.5 -38q-32.5 -14.5 -72.5 -14.5h-264l132 619h-124l22 103z" />
<glyph unicode="&#1067;" horiz-adv-x="777" d="M151 103h79q25 0 42.5 10q17.5 10 29.5 25.5q12 15.5 19.5 34q7.5 18.5 11.5 36q4 17.5 5 31q1 13.5 1 19.5q0 35 -15 55q-15 20 -45 20h-79zM224 444h115q35 0 62 -13.5q27 -13.5 45 -36q18 -22.5 27 -52.5q9 -30 9 -62q0 -23 -5.5 -52.5q-5.5 -29.5 -17.5 -61q-12 -31.5 -30 -61q-18 -29.5 -43 -53q-25 -23.5 -57.5 -38q-32.5 -14.5 -72.5 -14.5h-264l154 722h137zM669 0h-137l154 722l137 0z" />
<glyph unicode="&#1068;" horiz-adv-x="531" d="M151 103h79q25 0 42.5 10q17.5 10 29.5 25.5q12 15.5 19.5 34q7.5 18.5 11.5 36q4 17.5 5 31q1 13.5 1 19.5q0 35 -15 55q-15 20 -45 20h-79zM224 444h115q35 0 62 -13.5q27 -13.5 45 -36q18 -22.5 27 -52.5q9 -30 9 -62q0 -23 -5.5 -52.5q-5.5 -29.5 -17.5 -61q-12 -31.5 -30 -61q-18 -29.5 -43 -53q-25 -23.5 -57.5 -38q-32.5 -14.5 -72.5 -14.5h-264l154 722l137 0z" />
<glyph unicode="&#1069;" horiz-adv-x="531" d="M96 503l6 30q9 45 31 82q22 37 55.5 63.5q33.5 26.5 78 41.5q44.5 15 98.5 15q95 0 139 -41q44 -41 44 -108q0 -6 -0.5 -12.5q-0.5 -6.5 -2.5 -19.5q-2 -13 -6 -35.5q-4 -22.5 -12 -60.5q-8 -38 -20 -95q-12 -57 -29 -138q-27 -126 -95.5 -184q-68.5 -58 -175.5 -58q-91 0 -136.5 35.5q-45.5 35.5 -45.5 115.5q0 19 3 45.5q3 26.5 15 74.5l137 0q-11 -48 -14 -69q-3 -21 -3 -32q0 -29 14.5 -44.5q14.5 -15.5 50.5 -15.5q40 0 67.5 30.5q27.5 30.5 38.5 84.5l27 126h-115l23 110h115q7 30 11 49.5q4 19.5 6.5 32.5q2.5 13 3 21q0.5 8 0.5 15q0 30 -14 46.5q-14 16.5 -49 16.5q-48 0 -72.5 -32.5q-24.5 -32.5 -36.5 -89.5z" />
<glyph unicode="&#1070;" horiz-adv-x="831" d="M224 444h124l11 51q15 68 42.5 114q27.5 46 65.5 74q38 28 84.5 40q46.5 12 97.5 12q43 0 79 -8.5q36 -8.5 61.5 -27q25.5 -18.5 39.5 -49q14 -30.5 14 -75.5q0 -9 -0.5 -17.5q-0.5 -8.5 -2.5 -22.5q-2 -14 -6.5 -35.5q-4.5 -21.5 -11.5 -57q-7 -35.5 -18 -87.5q-11 -52 -27 -126q-15 -69 -42 -116q-27 -47 -64.5 -76q-37.5 -29 -83.5 -41.5q-46 -12.5 -98 -12.5q-43 0 -79 8.5q-36 8.5 -62 28q-26 19.5 -40.5 51q-14.5 31.5 -14.5 77.5q0 9 1 20.5q1 11.5 4 31.5q3 20 9.5 52q6.5 32 17.5 82l-124 0l-72 -334h-137l154 722h137zM626 625q-49 0 -81 -31q-32 -31 -44 -88q-16 -77 -27.5 -129.5q-11.5 -52.5 -18.5 -88q-7 -35.5 -11 -56q-4 -20.5 -6 -32q-2 -11.5 -2.5 -17q-0.5 -5.5 -0.5 -10.5q0 -38 19 -59q19 -21 58 -21q45 0 77.5 33q32.5 33 45.5 90q16 76 27.5 129q11.5 53 18.5 88.5q7 35.5 11 56q4 20.5 6 32q2 11.5 2.5 16q0.5 4.5 0.5 8.5q0 38 -19.5 58.5t-55.5 20.5z" />
<glyph unicode="&#1071;" horiz-adv-x="545" d="M298 294l-187 -294h-149l206 310q-38 19 -57 57q-19 38 -19 87q0 52 18 100q18 48 50 85.5q32 37.5 75.5 60q43.5 22.5 93.5 22.5h264l-154 -722h-137l63 294zM433 615h-69q-42 0 -68 -17q-26 -17 -40 -40q-14 -23 -18.5 -46.5q-4.5 -23.5 -4.5 -35.5q0 -75 86 -75l69 0z" />
<glyph unicode="&#1072;" horiz-adv-x="477" d="M208 230q-32 -18 -47 -47q-15 -29 -15 -57q0 -21 9.5 -35q9.5 -14 32.5 -14q29 0 52.5 17.5q23.5 17.5 31.5 54.5l28 133zM78 378q6 43 26 77q20 34 50 57.5q30 23.5 67.5 35.5q37.5 12 77.5 12q35 0 65 -6q30 -6 51.5 -19q21.5 -13 34 -33.5q12.5 -20.5 12.5 -48.5q0 -16 -4 -33l-72 -340q-3 -16 -5 -28q-2 -12 -2 -23q0 -17 6 -29l-129 0q-2 3 -2.5 9.5q-0.5 6.5 -0.5 9.5q0 7 1 16.5q1 9.5 3 16.5q-25 -32 -54 -50q-29 -18 -79 -18q-51 0 -82 25.5q-31 25.5 -31 79.5q0 88 48 141.5q48 53.5 134 85.5q71 26 103.5 50q32.5 24 32.5 59q0 15 -10.5 24.5q-10.5 9.5 -39.5 9.5q-26 0 -50 -17.5q-24 -17.5 -31 -63.5z" />
<glyph unicode="&#1073;" horiz-adv-x="477" d="M190 466q11 12 24 24.5q13 12.5 28 22.5q15 10 33.5 16.5q18.5 6.5 39.5 6.5q72 0 105 -31.5q33 -31.5 33 -89.5q0 -27 -6 -57l-42 -196q-8 -36 -24.5 -68q-16.5 -32 -44.5 -56.5q-28 -24.5 -68 -39q-40 -14.5 -94 -14.5q-45 0 -76 10q-31 10 -50 27q-19 17 -27.5 41q-8.5 24 -8.5 51q0 23 6 49l54 253q24 115 82 181.5q58 66.5 142 86.5q54 13 83.5 23.5q29.5 10.5 41.5 28.5l87 0q-9 -21 -22 -38.5q-13 -17.5 -32.5 -32q-19.5 -14.5 -46 -26q-26.5 -11.5 -63.5 -20.5q-30 -8 -54 -18.5q-24 -10.5 -42.5 -28q-18.5 -17.5 -33.5 -43q-15 -25.5 -27 -62.5zM195 81q30 0 50.5 13.5q20.5 13.5 28.5 51.5l48 228q3 13 3 24q0 24 -14 32.5q-14 8.5 -39 8.5q-29 0 -51 -13.5q-22 -13.5 -30 -51.5l-48 -228q-3 -12 -3 -21q0 -25 15.5 -34.5t39.5 -9.5z" />
<glyph unicode="&#1074;" horiz-adv-x="463" d="M185 330h34q17 0 33 4.5q16 4.5 28.5 14q12.5 9.5 20 25q7.5 15.5 7.5 36.5q0 21 -13.5 33.5q-13.5 12.5 -48.5 12.5h-34zM134 90h41q19 0 36 5q17 5 28 15q14 13 22.5 35.5q8.5 22.5 8.5 42.5q0 29 -18 43q-18 14 -44 14h-41zM108 546h203q25 0 49 -6q24 -6 42 -18.5q18 -12.5 29 -31.5q11 -19 11 -45q0 -29 -10.5 -54q-10.5 -25 -27 -45q-16.5 -20 -36 -34q-19.5 -14 -38.5 -20q26 -11 47 -31.5q21 -20.5 21 -63.5q0 -51 -18.5 -88q-18.5 -37 -47.5 -61q-29 -24 -64 -36q-35 -12 -68 -12l-208 0z" />
<glyph unicode="&#1075;" horiz-adv-x="385" d="M428 546l-21 -97h-197l-95 -449h-123l116 546z" />
<glyph unicode="&#1076;" horiz-adv-x="517" d="M37 97q17 24 31.5 49q14.5 25 26.5 55.5q12 30.5 23.5 70q11.5 39.5 22.5 93.5l38 181h340l-95 -449h45l-49 -229h-116l28 132h-235l-28 -132h-116l49 229zM375 449h-99l-26 -126q-10 -48 -19.5 -81q-9.5 -33 -20.5 -58q-11 -25 -23 -45q-12 -20 -26 -42l140 0z" />
<glyph unicode="&#1077;" horiz-adv-x="466" d="M165 260l-25 -119q-2 -10 -2 -15q0 -45 54 -45q30 0 51 15.5q21 15.5 27 44.5l7 31h123q-9 -52 -30.5 -87.5q-21.5 -35.5 -51.5 -58q-30 -22.5 -67.5 -32.5q-37.5 -10 -78.5 -10q-70 0 -113.5 29q-43.5 29 -43.5 94q0 23 6 50l48 230q10 46 31 79q21 33 50.5 54q29.5 21 66 30.5q36.5 9.5 77.5 9.5q70 0 113.5 -29q43.5 -29 43.5 -94q0 -23 -6 -50l-27 -127zM315 350l11 53q2 10 2 15q0 22 -14 33.5q-14 11.5 -40 11.5q-30 0 -51 -15q-21 -15 -27 -45l-11 -53z" />
<glyph unicode="&#1078;" horiz-adv-x="616" d="M422 546l-43 -203l156 203h129l-176 -220l60 -326h-137l-31 212l-41 -56l-33 -156h-118l33 156l-17 56l-121 -212h-137l198 326l-82 220h129l70 -203l43 203z" />
<glyph unicode="&#1079;" horiz-adv-x="466" d="M69 379q12 46 34.5 80q22.5 34 52 56.5q29.5 22.5 64 33.5q34.5 11 69.5 11q70 0 111.5 -32q41.5 -32 41.5 -86q0 -30 -9.5 -54.5q-9.5 -24.5 -25.5 -43.5q-16 -19 -37 -32.5q-21 -13.5 -44 -20.5q35 -11 54 -36.5q19 -25.5 19 -66.5q0 -50 -18 -88.5q-18 -38.5 -49 -64q-31 -25.5 -72.5 -38.5q-41.5 -13 -88.5 -13q-32 0 -60.5 7q-28.5 7 -50 22.5q-21.5 15.5 -34.5 41q-13 25.5 -13 63.5q0 25 6 55l120 0q-5 -22 -5 -38q0 -23 10.5 -38.5q10.5 -15.5 38.5 -15.5q26 0 43 11q17 11 27.5 27.5q10.5 16.5 15 35.5q4.5 19 4.5 34q0 26 -15 39q-15 13 -41 13h-29l20 90h26q24 0 39.5 9q15.5 9 24.5 22.5q9 13.5 13 30q4 16.5 4 32.5q0 19 -10.5 28.5q-10.5 9.5 -35.5 9.5q-34 0 -51 -23q-17 -23 -28 -61z" />
<glyph unicode="&#1080;" horiz-adv-x="471" d="M228 546l-69 -326h1l200 326h119l-116 -546h-120l68 322h-1l-198 -322h-120l116 546z" />
<glyph unicode="&#1081;" horiz-adv-x="471" d="M229 546l-69 -326h1l200 326h119l-116 -546h-120l69 322h-1l-199 -322h-120l116 546zM267 722q-1 -3 -1.5 -8.5q-0.5 -5.5 -0.5 -8.5q0 -23 15.5 -28.5q15.5 -5.5 39.5 -5.5q29 0 49.5 8.5q20.5 8.5 28.5 42.5l66 0q-13 -60 -51 -91.5q-38 -31.5 -106 -31.5q-57 0 -82 26.5q-25 26.5 -25 64.5q0 8 1 16.5q1 8.5 3 15.5z" />
<glyph unicode="&#1082;" horiz-adv-x="425" d="M188 343l156 203h129l-176 -220l60 -326h-137l-31 212l-41 -56l-33 -156h-123l116 546l123 0z" />
<glyph unicode="&#1083;" horiz-adv-x="489" d="M498 546l-116 -546h-123l95 449h-101l-46 -219q-15 -72 -34.5 -118.5q-19.5 -46.5 -42.5 -73.5q-23 -27 -48.5 -37.5q-25.5 -10.5 -52.5 -10.5q-20 0 -35.5 2.5q-15.5 2.5 -33.5 7.5l19 90q16 -3 27 -3q17 0 28.5 6.5q11.5 6.5 22 32q10.5 25.5 23 75.5q12.5 50 30.5 137l44 208z" />
<glyph unicode="&#1084;" horiz-adv-x="594" d="M274 546l3 -365l159 365h166l-116 -546h-120l82 387h-1l-169 -387h-78l-5 387h-1l-82 -387h-120l116 546z" />
<glyph unicode="&#1085;" horiz-adv-x="464" d="M187 338h118l44 208h123l-116 -546h-123l51 241h-118l-51 -241h-123l116 546l123 0z" />
<glyph unicode="&#1086;" horiz-adv-x="477" d="M300 560q44 0 75 -10.5q31 -10.5 50.5 -27.5q19.5 -17 28 -40.5q8.5 -23.5 8.5 -48.5q0 -12 -2 -25q-2 -13 -5 -26l-46 -220q-8 -35 -24.5 -67.5q-16.5 -32.5 -44.5 -57q-28 -24.5 -68 -39q-40 -14.5 -94 -14.5q-45 0 -75.5 10q-30.5 10 -50 27q-19.5 17 -28 40.5q-8.5 23.5 -8.5 50.5q0 24 6 50l46 220q7 35 24 67.5q17 32.5 45 57q28 24.5 68 39q40 14.5 95 14.5zt0 0zM280 463q-29 0 -50.5 -13.5q-21.5 -13.5 -29.5 -51.5l-54 -252q-2 -10 -2 -20q0 -25 15 -35q15 -10 39 -10q30 0 50.5 13.5q20.5 13.5 28.5 51.5l54 252q3 15 3 23q0 24 -14.5 33t-39.5 9z" />
<glyph unicode="&#1087;" horiz-adv-x="464" d="M472 546l-116 -546h-123l95 449h-118l-95 -449h-123l116 546z" />
<glyph unicode="&#1088;" horiz-adv-x="466" d="M291 459q-23 0 -45 -16q-22 -16 -30 -50l-52 -246q-2 -10 -2 -17q0 -25 14.5 -37q14.5 -12 34.5 -12q24 0 45 16q21 16 28 48l53 250q2 10 2 19q0 23 -14 34q-14 11 -34 11zt0 0zM249 546l-14 -61h1q23 38 56 56.5q33 18.5 65 18.5q24 0 44.5 -6q20.5 -6 36.5 -19q16 -13 25 -33.5q9 -20.5 9 -48.5q0 -24 -5 -46l-57 -269q-8 -39 -26 -68q-18 -29 -42 -48q-24 -19 -52 -28.5q-28 -9.5 -56 -9.5q-72 0 -89 74l-51 -240h-123l155 728z" />
<glyph unicode="&#1089;" horiz-adv-x="437" d="M289 348q4 22 7 35.5q3 13.5 4.5 22q1.5 8.5 2 12.5q0.5 4 0.5 7q0 17 -10.5 25.5q-10.5 8.5 -27.5 8.5q-23 0 -40.5 -13.5q-17.5 -13.5 -23.5 -42.5l-56 -262q-2 -8 -2 -17q0 -20 11.5 -29.5q11.5 -9.5 30.5 -9.5q20 0 37 12q17 12 22 37l16 77h123l-18 -83q-8 -36 -29 -63q-21 -27 -49 -45q-28 -18 -60.5 -27q-32.5 -9 -62.5 -9q-70 0 -110.5 32.5q-40.5 32.5 -40.5 87.5q0 18 4 34l56 268q7 34 26.5 62.5q19.5 28.5 47.5 49q28 20.5 63.5 31.5q35.5 11 75.5 11q27 0 53 -7q26 -7 46 -21.5q20 -14.5 32.5 -36q12.5 -21.5 12.5 -50.5q0 -14 -3 -29l-15 -68z" />
<glyph unicode="&#1090;" horiz-adv-x="398" d="M443 546l-21 -97h-126l-95 -449h-123l95 449h-126l21 97z" />
<glyph unicode="&#1091;" horiz-adv-x="434" d="M208 546l-16 -419h2l159 419h129l-275 -615q-15 -34 -31 -56q-16 -22 -34 -34.5q-18 -12.5 -39.5 -17.5q-21.5 -5 -49.5 -5q-18 0 -33 1q-15 1 -32 3l20 93h45q14 0 24.5 12.5q10.5 12.5 10.5 29.5q0 6 -0.5 33q-0.5 27 -2.5 92q-2 65 -5 176.5q-3 111.5 -9 287.5z" />
<glyph unicode="&#1092;" horiz-adv-x="709" d="M512 722l-51 -237h1q22 38 55.5 56.5q33.5 18.5 65.5 18.5q24 0 44.5 -6q20.5 -6 36.5 -19q16 -13 25 -33.5q9 -20.5 9 -48.5q0 -11 -1 -22q-1 -11 -4 -24l-57 -269q-8 -39 -26 -68q-18 -29 -42 -48q-24 -19 -52 -28.5q-28 -9.5 -56 -9.5q-72 0 -89 74l-51 -240h-123l51 240q-23 -37 -54.5 -55.5q-31.5 -18.5 -66.5 -18.5q-48 0 -81.5 27q-33.5 27 -33.5 84q0 10 1.5 20.5q1.5 10.5 3.5 22.5l57 269q9 41 27 70q18 29 42 47.5q24 18.5 51.5 27q27.5 8.5 55.5 8.5q32 0 57 -18.5q25 -18.5 32 -56.5l50 237zM517 459q-23 0 -45 -16q-22 -16 -30 -50l-52 -246q-2 -10 -2 -17q0 -25 14.5 -37q14.5 -12 34.5 -12q24 0 45 16q21 16 28 48l53 250q2 10 2 19q0 23 -14 34q-14 11 -34 11zt0 0zM274 459q-23 0 -45 -16q-22 -16 -30 -50l-52 -246q-2 -10 -2 -17q0 -25 14.5 -37q14.5 -12 34.5 -12q24 0 45 16q21 16 28 48l53 250q2 10 2 19q0 23 -14 34t-34 11z" />
<glyph unicode="&#1093;" horiz-adv-x="423" d="M209 546l30 -151l94 151h136l-194 -273l85 -273h-143l-29 156l-95 -156h-143l201 273l-78 273z" />
<glyph unicode="&#1094;" horiz-adv-x="483" d="M135 97h118l95 449h123l-95 -449h44l-49 -229h-116l28 132h-292l116 546l123 0z" />
<glyph unicode="&#1095;" horiz-adv-x="459" d="M226 546l-33 -155q-1 -4 -1.5 -11.5q-0.5 -7.5 -0.5 -10.5q0 -45 47 -45q20 0 36 2q16 2 25 7l45 213h123l-116 -546h-123l51 240q-22 -8 -47.5 -12.5q-25.5 -4.5 -61.5 -4.5q-47 0 -77 24.5q-30 24.5 -30 80.5q0 11 1 24q1 13 4 27l35 167z" />
<glyph unicode="&#1096;" horiz-adv-x="700" d="M133 97h118l95 449h120l-95 -449h118l95 449h120l-116 -546h-596l116 546l120 0z" />
<glyph unicode="&#1097;" horiz-adv-x="712" d="M132 97h118l95 449h120l-95 -449h118l95 449h120l-95 -449h41l-49 -230h-114l28 133h-523l116 546l120 0z" />
<glyph unicode="&#1098;" horiz-adv-x="513" d="M187 97h40q25 0 43 8.5q18 8.5 29.5 22q11.5 13.5 16.5 30.5q5 17 5 33q0 28 -19 39q-19 11 -45 11h-40zM282 546l-44 -208h79q26 0 50 -7.5q24 -7.5 43 -23.5q19 -16 30 -39.5q11 -23.5 11 -55.5q0 -53 -20 -92.5q-20 -39.5 -51 -66q-31 -26.5 -67 -40q-36 -13.5 -68 -13.5h-202l95 449h-97l21 97z" />
<glyph unicode="&#1099;" horiz-adv-x="669" d="M136 97h40q25 0 43 8.5q18 8.5 29.5 22q11.5 13.5 16.5 30.5q5 17 5 33q0 28 -19 39q-19 11 -45 11h-40zM187 338h79q26 0 50 -7.5q24 -7.5 43 -23.5q19 -16 30 -39.5q11 -23.5 11 -55.5q0 -53 -20 -92.5q-20 -39.5 -51 -66q-31 -26.5 -67 -40q-36 -13.5 -68 -13.5h-202l116 546h123zM561 0h-123l116 546l123 0z" />
<glyph unicode="&#1100;" horiz-adv-x="462" d="M136 97h40q25 0 43 8.5q18 8.5 29.5 22q11.5 13.5 16.5 30.5q5 17 5 33q0 28 -19 39q-19 11 -45 11h-40zM187 338h79q26 0 50 -7.5q24 -7.5 43 -23.5q19 -16 30 -39.5q11 -23.5 11 -55.5q0 -53 -20 -92.5q-20 -39.5 -51 -66q-31 -26.5 -67 -40q-36 -13.5 -68 -13.5h-202l116 546l123 0z" />
<glyph unicode="&#1101;" horiz-adv-x="441" d="M65 365l11 51q7 36 28.5 63q21.5 27 49.5 45q28 18 60.5 27q32.5 9 62.5 9q70 0 110.5 -32.5q40.5 -32.5 40.5 -87.5q0 -18 -4 -34l-56 -268q-8 -35 -27 -63q-19 -28 -47 -48.5q-28 -20.5 -63.5 -31.5q-35.5 -11 -75.5 -11q-27 0 -53 7q-26 7 -46 21q-20 14 -32.5 36q-12.5 22 -12.5 51q0 14 3 29l14 66h123q-8 -41 -10.5 -55q-2.5 -14 -2.5 -18q0 -17 10.5 -26.5q10.5 -9.5 27.5 -9.5q23 0 40.5 13.5q17.5 13.5 23.5 42.5l21 100h-78l21 97h78l14 65q2 10 2 17q0 20 -11.5 29.5q-11.5 9.5 -30.5 9.5q-20 0 -37 -12q-17 -12 -22 -37l-9 -45z" />
<glyph unicode="&#1102;" horiz-adv-x="702" d="M187 338h97l9 44q8 36 24.5 68q16.5 32 44.5 56.5q28 24.5 68 39q40 14.5 95 14.5q44 0 75 -10q31 -10 50.5 -27q19.5 -17 28 -40q8.5 -23 8.5 -49q0 -12 -2 -25q-2 -13 -5 -27l-46 -220q-7 -35 -24 -67q-17 -32 -45 -57q-28 -25 -68 -39.5q-40 -14.5 -94 -14.5q-45 0 -75.5 10q-30.5 10 -50 27q-19.5 17 -28 40.5q-8.5 23.5 -8.5 50.5q0 24 6 50l16 79h-97l-51 -241h-123l116 546h123zM505 463q-29 0 -50.5 -13.5q-21.5 -13.5 -29.5 -51.5l-54 -252q-2 -8 -2 -20q0 -25 15 -35q15 -10 39 -10q30 0 50.5 13.5q20.5 13.5 28.5 51.5l54 252q3 13 3 23q0 24 -14.5 33t-39.5 9z" />
<glyph unicode="&#1103;" horiz-adv-x="462" d="M327 452h-48q-33 0 -60 -26q-27 -26 -27 -75q0 -50 50 -50h53zM227 207l-125 -207h-133l148 228q-26 17 -40.5 42.5q-14.5 25.5 -14.5 61.5q0 53 20 93q20 40 50.5 67q30.5 27 67 40.5q36.5 13.5 68.5 13.5h202l-116 -546h-123l44 207z" />
<glyph unicode="&#1105;" horiz-adv-x="466" d="M187 722h109l-23 -109h-109zM364 722h109l-23 -109h-109zM165 260l-25 -119q-2 -10 -2 -15q0 -45 54 -45q30 0 51 15.5q21 15.5 27 44.5l7 31h123q-9 -52 -30.5 -87.5q-21.5 -35.5 -51.5 -58q-30 -22.5 -67.5 -32.5q-37.5 -10 -78.5 -10q-70 0 -113.5 29q-43.5 29 -43.5 94q0 23 6 50l48 230q10 46 31 79q21 33 50.5 54q29.5 21 66 30.5q36.5 9.5 77.5 9.5q70 0 113.5 -29q43.5 -29 43.5 -94q0 -23 -6 -50l-27 -127zM315 350l11 53q2 10 2 15q0 22 -14 33.5q-14 11.5 -40 11.5q-30 0 -51 -15q-21 -15 -27 -45l-11 -53z" />
<glyph unicode="&#1106;" horiz-adv-x="479" d="M279 768l-14 -66h109l-17 -80h-109l-26 -121q9 10 21.5 20.5q12.5 10.5 27.5 19q15 8.5 32.5 14q17.5 5.5 36.5 5.5q47 0 78 -24q31 -24 31 -80q0 -23 -6 -50l-104 -492q-6 -28 -19.5 -46.5q-13.5 -18.5 -32 -30q-18.5 -11.5 -42 -16q-23.5 -4.5 -50.5 -4.5q-5 0 -12.5 0q-7.5 0 -15 0.5q-7.5 0.5 -13 1q-5.5 0.5 -6.5 0.5l21 95h17q14 0 24 9q10 9 16 38l88 418q5 20 5 33q0 47 -49 47q-26 0 -45 -17.5q-19 -17.5 -26 -49.5l-83 -392h-123l132 622h-55l17 80h55l14 66z" />
<glyph unicode="&#1107;" horiz-adv-x="385" d="M427 546l-20 -97h-197l-96 -449h-123l116 546zM468 743l-158 -144h-69l119 144z" />
<glyph unicode="&#1108;" horiz-adv-x="437" d="M293 365q8 36 9.5 46.5q1.5 10.5 1.5 12.5q0 17 -11 26q-11 9 -28 9q-23 0 -40.5 -13.5q-17.5 -13.5 -23.5 -42.5l-14 -65h78l-21 -97h-78l-21 -100q-1 -5 -1.5 -10q-0.5 -5 -0.5 -7q0 -20 11.5 -29.5q11.5 -9.5 30.5 -9.5q20 0 37 12q17 12 22 37l12 60h123l-14 -66q-8 -36 -29 -63q-21 -27 -49 -45q-28 -18 -60.5 -27q-32.5 -9 -62.5 -9q-70 0 -110.5 32.5q-40.5 32.5 -40.5 87.5q0 15 4 34l56 268q7 34 26.5 62.5q19.5 28.5 47.5 49q28 20.5 63.5 31.5q35.5 11 75.5 11q27 0 53 -7q26 -7 46 -21.5q20 -14.5 32.5 -36q12.5 -21.5 12.5 -50.5q0 -14 -3 -29l-11 -51z" />
<glyph unicode="&#1109;" horiz-adv-x="445" d="M140 176q-5 -23 -7 -32.5q-2 -9.5 -2 -17.5q0 -24 13.5 -34.5q13.5 -10.5 35.5 -10.5q30 0 52 17.5q22 17.5 22 45.5q0 16 -9 31q-9 15 -33 33l-87 64q-25 18 -40.5 43q-15.5 25 -15.5 61q0 45 18 79q18 34 47 57.5q29 23.5 67 35.5q38 12 79 12q68 0 107.5 -32.5q39.5 -32.5 39.5 -94.5q0 -11 -1 -23.5q-1 -12.5 -6 -33.5l-120 0q4 17 5 24.5q1 7.5 1 12.5q0 50 -46 50q-26 0 -45.5 -15.5q-19.5 -15.5 -19.5 -45.5q0 -8 5.5 -19.5q5.5 -11.5 28.5 -28.5l75 -54q14 -10 27.5 -22.5q13.5 -12.5 24 -28.5q10.5 -16 17 -35.5q6.5 -19.5 6.5 -43.5q0 -26 -8 -58.5q-8 -32.5 -32 -61q-24 -28.5 -68 -47.5q-44 -19 -116 -19q-31 0 -57.5 8q-26.5 8 -46 24q-19.5 16 -30.5 39.5q-11 23.5 -11 55.5q0 10 1.5 23q1.5 13 8.5 42z" />
<glyph unicode="&#1110;" horiz-adv-x="223" d="M147 722h123l-26 -123h-123zM116 0h-123l116 546l123 0z" />
<glyph unicode="&#1111;" horiz-adv-x="223" d="M116 0h-123l116 546h123zM65 722h109l-23 -109h-109zM243 722h109l-23 -109l-109 0z" />
<glyph unicode="&#1112;" horiz-adv-x="223" d="M146 722h123l-26 -123h-123zM232 546l-134 -632q-6 -28 -19.5 -46.5q-13.5 -18.5 -32 -30q-18.5 -11.5 -42 -16q-23.5 -4.5 -50.5 -4.5q-5 0 -12.5 0q-7.5 0 -15 0.5q-7.5 0.5 -13 1q-5.5 0.5 -6.5 0.5l21 95h17q14 0 24 9q10 9 16 38l124 585z" />
</font>
</defs>
</svg>
